<?xml version="1.0" encoding="utf-8"?>
<!-- Generator: Adobe Illustrator 23.0.5, SVG Export Plug-In . SVG Version: 6.00 Build 0)  -->
<svg version="1.1" id="Layer_1" xmlns="http://www.w3.org/2000/svg" xmlns:xlink="http://www.w3.org/1999/xlink" x="0px" y="0px"
	 viewBox="0 0 351 171.4" style="enable-background:new 0 0 351 171.4;" xml:space="preserve">
<style type="text/css">
	.st0{fill:#E22026;}
	.st1{fill:none;stroke:#000000;stroke-miterlimit:10;}
	.st2{fill:none;stroke:#000000;stroke-width:2;stroke-miterlimit:10;}
	.st3{fill:#FFFFFF;}
	.st4{fill:#FDFDFD;}
	.st5{fill:#E31F26;}
	.st6{fill:#F09093;}
	.st7{fill:#423E3C;}
	.st8{fill:#878584;}
	.st9{fill-rule:evenodd;clip-rule:evenodd;fill:#E31F26;}
</style>
<rect x="1758.5" y="-682" class="st0" width="223" height="1335.9"/>
<image style="overflow:visible;enable-background:new    ;" width="1904" height="920" xlink:href="D70D8223.jpeg"  transform="matrix(0.9989 0 0 0.9989 2964.7957 -405)">
</image>
<g>
	<path class="st0" d="M344.6,21c-6.7,11.3-15.4,20.8-26,28.4c-15.2,11-32.3,18-50.4,22.2c-18.5,4.3-37.2,7.8-55.9,11.2
		c-58,10.6-114.5,26.4-168.6,50.2C32,138.2,20.6,143.8,9,149.2c-0.7,0.3-1.4,0.7-2.6,1.2c0.3-1.2,0.4-2,0.7-2.7
		c4-12.6,7.9-25.2,11.8-37.9c0.6-1.9,1.6-2.9,3.3-3.6C49,93.8,76.9,84.8,105.4,77.5c40-10.3,80.5-18.6,121.4-25
		C254,48.1,281.3,44,308,37.1C320.1,33.9,329.2,31.9,344.6,21z"/>
</g>
<text transform="matrix(1 0 0 1 1025.8966 -61.3086)" style="font-family:'Roboto-Regular'; font-size:37.1378px;">Subtext</text>
<text transform="matrix(1 0 0 1 2328.1575 -330.526)" style="font-family:'Roboto-Regular'; font-size:37.1378px;">Certifications</text>
<text transform="matrix(1 0 0 1 2328.1575 -170.8737)" style="font-family:'Roboto-Regular'; font-size:37.1378px;">certification 1</text>
<text transform="matrix(1 0 0 1 2328.1575 -62.8737)" style="font-family:'Roboto-Regular'; font-size:37.1378px;">certification 2</text>
<text transform="matrix(1 0 0 1 2328.1575 16.9524)" style="font-family:'Roboto-Regular'; font-size:37.1378px;">certification 3</text>
<text transform="matrix(1 0 0 1 2328.1575 98.3437)" style="font-family:'Roboto-Regular'; font-size:37.1378px;">certification 4</text>
<image style="overflow:visible;enable-background:new    ;" width="261" height="64" xlink:href="D70D8221.jpeg"  transform="matrix(0.9844 0 0 0.9844 1030.9738 51.4783)">
</image>
<rect x="2167" y="-259.4" class="st1" width="530.6" height="582.3"/>
<line class="st2" x1="1036.2" y1="-569.3" x2="1086.3" y2="-569.3"/>
<line class="st2" x1="1036.2" y1="-557.6" x2="1086.3" y2="-557.6"/>
<line class="st2" x1="1036.2" y1="-543.5" x2="1086.3" y2="-543.5"/>
<g>
	<g>
		<path d="M2140.4-103.7c0.5,32.1,1,64.3,1.5,96.4s1,64.3,1.5,96.4c0.3,18.2,0.6,36.3,0.9,54.5c0.1,3.2,5.1,3.2,5,0
			c-0.5-32.1-1-64.3-1.5-96.4s-1-64.3-1.5-96.4c-0.3-18.1-0.6-36.3-0.9-54.5C2145.3-106.9,2140.3-106.9,2140.4-103.7L2140.4-103.7z"
			/>
	</g>
</g>
<g>
	<g>
		<path d="M2131.8-101c-4.7,14.5-10.7,28.6-18,42.1c-2.1,3.8-4.3,7.6-6.5,11.3c1.5,0.2,3.1,0.4,4.6,0.6c-0.7-2.5,0-5,1-7.4
			c1.1-2.6,2.6-5.1,4-7.6c2.7-4.9,5.6-9.7,8.6-14.5c6.1-9.6,12.7-18.8,19.8-27.5c0.9-1.1,1.7-2.1,2.6-3.1c0.9-1,1.7-2.2,2.8-3
			c1.5-1.2,2.6-0.1,3.6,1.3c1.6,2.3,2.8,4.9,4.2,7.4c1.5,2.7,3,5.4,4.5,8.1c5.8,10.7,11.6,21.4,17.2,32.2
			c6.3,12.1,12.4,24.3,18.4,36.6c1.4-0.8,2.9-1.7,4.3-2.5c-14.4-20.9-27.9-42.3-40.6-64.3c-1.6-2.8-3.2-5.5-4.7-8.3
			c-1.3-2.4-2.6-5.4-5.2-6.6c-5.6-2.7-10.1,3.2-12.7,7.3c-6.8,10.9-13.8,21.6-21,32.2c-8,11.8-16.3,23.4-24.8,34.8
			c1.5,0.6,3.1,1.3,4.6,1.9c8.1-23.9,23.5-44.4,39.4-63.7c2-2.5,4.1-4.9,6.1-7.4c1-1.2,1.9-2.4,2.9-3.5c0.8-0.8,1.7-1.6,3-1.6
			c2.7,0.1,5.2,2.8,7.1,4.4c2.2,1.9,4.3,3.9,6.4,6c8.1,8.3,14.8,17.7,20.2,27.9c6,11.5,10.1,24,12,36.9c0.8-1.1,1.6-2.1,2.4-3.2
			c-1.7,0.1-3.3-0.5-4.2-1.9c-1.7-2.7-6-0.2-4.3,2.5c1.8,2.9,5.1,4.7,8.5,4.4c1.8-0.1,2.7-1.5,2.4-3.2c-3.6-24.2-14.8-47.1-31.5-65
			c-2.1-2.2-4.3-4.4-6.5-6.5c-2.4-2.2-4.8-4.5-7.6-6.1c-3.1-1.7-6.7-2-9.7,0.2c-2.6,1.9-4.5,4.8-6.5,7.2
			c-8.5,10.2-16.8,20.5-24.4,31.5c-8.4,12.3-15.7,25.4-20.5,39.5c-0.4,1.2,0.4,2.5,1.4,2.9c1.2,0.5,2.4,0,3.1-1
			c14.6-19.6,28.6-39.8,41.7-60.5c1.6-2.6,3.2-5.2,4.9-7.7c1-1.6,2.5-3.8,4.4-4.2c1.7-0.4,2.8,2.7,3.5,4c1.5,2.6,3,5.3,4.5,7.9
			c6,10.5,12.3,20.9,18.7,31.1c7.3,11.6,14.8,23.1,22.6,34.3c1.8,2.6,5.7,0.4,4.3-2.5c-11.3-23.1-23.1-46-35.4-68.6
			c-1.5-2.8-3-5.5-4.6-8.3c-1.4-2.6-2.8-5.4-4.5-7.8c-1.6-2.2-3.9-4.1-6.8-3.9c-3,0.3-5,2.6-6.8,4.8c-7.8,9.2-15,18.9-21.6,29
			c-3.6,5.6-7.1,11.3-10.3,17.2c-3.2,5.7-7.5,12.3-5.7,19.2c0.6,2.1,3.5,2.4,4.6,0.6c8.2-13.4,15-27.4,20.6-42
			c1.6-4.1,3-8.3,4.4-12.5C2137.6-102.7,2132.8-104,2131.8-101L2131.8-101z"/>
	</g>
</g>
<g>
	<g>
		<path d="M2131-89.5c6.7,26.2,0.9,53.5,3.9,80.1c1.5,13.6,4.6,26.9,7.3,40.3c2.8,13.5,4.9,27,5.8,40.7c1.1,15.6,1,31.3-0.4,46.9
			c-0.1,1.3,1.2,2.5,2.5,2.5c1.4,0,2.4-1.2,2.5-2.5c2.5-27.8,0.9-55.8-4.4-83.2c-2.6-13.4-5.9-26.8-7.8-40.3
			c-1.9-13.4-1.6-26.9-1.3-40.5c0.3-15.1,0.4-30.5-3.3-45.3C2135-93.9,2130.2-92.6,2131-89.5L2131-89.5z"/>
	</g>
</g>
<image style="overflow:visible;enable-background:new    ;" width="1910" height="936" xlink:href="D70D8227.jpeg"  transform="matrix(0.9989 0 0 0.9989 1548.6506 1091.087)">
</image>
<rect x="1588.7" y="2308.3" class="st3" width="2050.4" height="951.6"/>
<rect x="2277.4" y="2615.1" width="619.8" height="726.3"/>
<rect x="2812.9" y="2904.1" transform="matrix(0.3265 -0.9452 0.9452 0.3265 -845.3444 5048.3135)" width="613.6" height="426.5"/>
<rect x="3195.4" y="3108.4" transform="matrix(0.5613 -0.8276 0.8276 0.5613 -1212.5933 4355.6411)" width="613.6" height="426.5"/>
<text transform="matrix(1 0 0 1 2263.0142 2425.4456)" style="font-family:'Roboto-Regular'; font-size:59.3399px;">Manufacturing Excellence</text>
<text transform="matrix(1 0 0 1 1676.0587 2713.9883)" style="font-family:'Roboto-Regular'; font-size:91.3318px;">01</text>
<text transform="matrix(1 0 0 1 1676.0587 2842.377)" style="font-family:'Roboto-Regular'; font-size:76.7425px;">Raw material</text>
<text transform="matrix(1 0 0 1 1676.0592 2934.8955)" style="font-family:'Roboto-Regular'; font-size:55.9003px;">subtext</text>
<g>
	<g>
		<path d="M3573.1,2821c-14.3-29.7-36.9-54.1-62.9-74.1c-26.7-20.6-56.7-36.6-87.1-51c-36-17.1-72.8-32.5-110.2-46.5
			c-37.9-14.2-76.4-26.8-115.4-37.7c-38.8-10.9-78.1-20.1-117.7-27.8c-4.9-0.9-9.9-1.9-14.9-2.8c0.4,1.4,0.7,2.8,1.1,4.2
			c9.9-9.3,24.1-13.4,37.4-10.6c0.2-1.6,0.4-3.3,0.7-4.9c-16-2.1-32.4,1.2-46.4,9.3c-1.1,0.6-1.7,2.3-0.9,3.4
			c17.9,25.5,34.6,51.9,49.7,79.2c1.4-0.8,2.9-1.7,4.3-2.5c-18-27.5-34-56.4-47.9-86.2c-0.5,1.2-1,2.4-1.5,3.7
			c22.7-3.8,45.5-7.5,68.2-11.3c2.8-0.5,2.1-5-0.7-4.9c-31.1,1.1-62.3,2.2-93.4,3.4c-1.9,0.1-3.1,2.1-2.2,3.8
			c14.5,26.3,32,50.8,52,73.2c1.6,1.8,5-0.1,4.2-2.4c-7.8-23.3-19.1-45.2-33.8-64.9c-0.7,1.3-1.4,2.5-2.2,3.8c21.7-2,43.3-4,65-6
			c-0.2-1.6-0.4-3.3-0.7-4.9c-24.6,5.6-49.9,7.5-75.1,5.6c-1.5-0.1-3,1.7-2.4,3.2c9.2,24.4,22.4,47.1,38.9,67.4
			c1.9,2.3,5.3-0.6,3.9-3c-12.6-23-25.2-45.9-37.8-68.9c-0.7,1.3-1.4,2.5-2.2,3.8c25.4-2.4,50.9-3,76.4-2c0-1.7,0-3.3,0-5
			c-29.7,0.2-59.4,0.3-89.2,0.5c-2.3,0-3.1,2.6-1.8,4.3c19.4,23.8,36.9,49.1,52.3,75.6c1.7,2.9,5.6,0.4,4.3-2.5
			c-9-20.8-16.1-42.5-21.1-64.6c-0.6-2.6-1.2-5.3-1.7-7.9c-0.4-2.2-1.1-5.4,0.8-7.1c1.6-1.5,4.7-1.6,6.8-1.9
			c2.9-0.4,5.8-0.7,8.7-0.9c11.4-1,22.9-1,34.4-0.2c13.1,0.9,26.1,3.1,38.8,6.4c0.2-1.6,0.4-3.3,0.7-4.9
			c-35.2-1.5-70.5,3-104.1,13.3c-1.6,0.5-2.3,2.2-1.5,3.7c14,26.3,27.9,52.7,41.9,79c1.3,2.5,5.4,0.8,4.6-1.9
			c-3.3-10.4-6.5-20.8-9.8-31.2c-1.2,0.9-2.4,1.9-3.7,2.8c7.4,4.5,12.3,12,13.7,20.5c0.5,3.2,5.3,1.8,4.8-1.3
			c-1.6-9.8-7.6-18.4-16-23.5c-1.8-1.1-4.3,0.7-3.7,2.8c3.3,10.4,6.5,20.8,9.8,31.2c1.5-0.6,3.1-1.3,4.6-1.9
			c-14-26.3-27.9-52.7-41.9-79c-0.5,1.2-1,2.4-1.5,3.7c33.3-10.2,68.1-14.6,102.8-13.1c2.8,0.1,3.4-4.2,0.7-4.9
			c-24.4-6.3-49.9-8.5-75-6.4c-3.1,0.3-6.1,0.6-9.2,1c-2.6,0.3-5.3,0.6-7.6,1.9c-4.3,2.5-4.8,7.3-4.1,11.7c2,12.1,5.5,24.1,9.1,35.8
			c4.1,13.4,9,26.6,14.6,39.4c1.4-0.8,2.9-1.7,4.3-2.5c-15.6-26.9-33.4-52.6-53.1-76.7c-0.6,1.4-1.2,2.9-1.8,4.3
			c29.7-0.2,59.4-0.3,89.2-0.5c3.2,0,3.2-4.9,0-5c-25.5-1.1-51-0.4-76.4,2c-1.9,0.2-3.1,2-2.2,3.8c12.6,23,25.2,45.9,37.8,68.9
			c1.3-1,2.6-2,3.9-3c-16-19.5-28.7-41.6-37.6-65.2c-0.8,1.1-1.6,2.1-2.4,3.2c25.6,1.9,51.4-0.1,76.4-5.8c2.7-0.6,2.2-5.2-0.7-4.9
			c-21.7,2-43.3,4-65,6c-1.7,0.1-3.4,2.1-2.2,3.8c14.3,19.4,25.6,40.9,33.3,63.7c1.4-0.8,2.8-1.6,4.2-2.4
			c-19.7-22.1-36.9-46.3-51.2-72.2c-0.7,1.3-1.4,2.5-2.2,3.8c31.1-1.1,62.3-2.2,93.4-3.4c-0.2-1.6-0.4-3.3-0.7-4.9
			c-22.7,3.8-45.5,7.5-68.2,11.3c-1.7,0.3-2.1,2.4-1.5,3.7c13.9,29.8,29.8,58.7,47.9,86.2c1.8,2.7,5.9,0.3,4.3-2.5
			c-15.2-27.2-31.8-53.7-49.7-79.2c-0.3,1.1-0.6,2.3-0.9,3.4c13.3-7.6,28.7-10.6,43.9-8.6c2.8,0.4,3.4-4.4,0.7-4.9
			c-15.1-3.1-31,1.4-42.2,11.9c-1.3,1.2-0.8,3.8,1.1,4.2c39.3,7.1,78.4,15.9,117,26.3s76.8,22.3,114.4,35.9
			c37.7,13.6,74.9,28.7,111.3,45.4c30.8,14.1,61.4,29.3,89.2,48.8c26.8,18.7,51.1,41.7,67.4,70.2c2.1,3.6,4,7.2,5.8,11
			C3570.2,2826.4,3574.5,2823.9,3573.1,2821L3573.1,2821z"/>
	</g>
</g>
<image style="overflow:visible;" width="3030" height="735" xlink:href="../../../../RamRos logo files/Logo BlackRed.png"  transform="matrix(0.24 0 0 0.24 -704.1739 -353.6956)">
</image>
<g>
	<path class="st4" d="M12.5,1939.2c-9,2.8-17.8,6.4-26.4,10.3c-6.8,3.1-13.7,6.3-20.3,9.7c-0.6,0.3-1,0.6-1.2,1.3
		c-1.2,4-2.5,7.9-3.7,11.9c-0.4,1.1-0.2,1.4,1,1.4c14.1,0.1,28.1,0.2,42.2,0.3c1.2,0,1.6-0.3,1.9-1.4c2.1-8.9,4.3-17.8,6.5-26.7
		c0.6-2.4,1.2-4.7,1.8-7.1C13.5,1938.7,13,1939,12.5,1939.2z M112.3,1972.4c-10.3-15.8-20.6-31.6-30.8-47.4
		c-0.6-0.9-1.2-1.1-2.1-0.9c-15.1,2.3-30,5.3-44.8,8.8c-1.3,0.3-1.4,0.5-0.5,1.5c0.1,0.2,0.3,0.3,0.4,0.5c3.2,3.2,6.1,6.6,8.8,10.3
		c6.2,8.8,11.9,18,17.5,27.2c0.6,0.9,1.1,1.3,2.3,1.3c8-0.1,16.1,0,24.2,0v-0.1c8.1,0,16.3,0,24.4,0c0.4,0,0.9,0.2,1.1-0.2
		C112.9,1973,112.4,1972.7,112.3,1972.4z M119.2,1894.7c-0.2,0.1-0.5,0.3-0.7,0.5c-3.8,2.8-8.1,4.7-12.7,6
		c-10.4,2.9-21.1,4.8-31.8,6.4c-18.6,2.9-37.1,6.3-55.5,10.8c-14,3.4-27.9,7.5-41.2,13.1c-3.3,1.4-5.7,3.1-6.1,6.8
		c0,0.1-0.1,0.2-0.1,0.2c-1.5,4.8-3,9.7-4.6,14.8c3.7-1.8,7-3.5,10.4-5c14-6.4,28.4-11.9,43.2-16.3c16.9-5,34.2-8.6,51.6-11.5
		c8.2-1.4,16.3-3.3,24.1-6.5c9.4-3.8,17.4-9.5,23-18.1c0.3-0.4,0.6-0.7,0.7-1.3C119.4,1894.7,119.3,1894.6,119.2,1894.7z
		 M117.3,1856c-7.5-7-16.6-10.4-26.7-11.2c-8.9-0.7-17.9-1-26.9-1.1c-14-0.2-27.9,0-41.9,0.1c-6.5,0-13,0.1-19.6,0.1
		c-1.4,0-2.2,0.5-2.6,1.9c-1.5,4.9-3.2,9.7-4.8,14.5c-6.1,19.5-12,39-17.9,58.5c-0.9,3-1.8,6-2.7,9c0.4,0.1,0.7-0.1,0.9-0.2
		c3.9-2.1,7.9-3.8,12.1-5.3c9.8-3.6,19.9-6.1,30-8.5c1-0.2,1.4-0.6,1.7-1.6c4.1-14.3,8.3-28.7,12.4-43c0.3-1.1,0.7-1.5,1.9-1.5
		c6.1,0,12.2-0.2,18.3-0.2c7.9-0.1,15.9-0.4,23.8-0.1c5.1,0.2,11,3.5,12.1,10.2c0.3,1.9,0.7,3.8,0.8,5.8c0.7,7.6-1.9,13.5-8.6,17.5
		c-0.2,0.1-0.4,0.3-0.6,0.4c-0.3,0-0.6,0.1-0.8,0.6c0.6,0,1.1,0.1,1.6-0.2c0.3,0,0.6,0,0.9-0.1c7.5-1.3,14.9-3,22.2-4.9
		c5.4-1.4,10.4-3.5,14.8-6.8c3.1-2.3,5.3-5.4,6.1-9.3c0.4-1.7,0.6-3.4,0.7-5C125.2,1867.9,122.8,1861.3,117.3,1856z M232.4,1884.9
		c-12.3-2-24.6-4.4-37.2-4.6c-4.7-0.1-9.3-0.5-13.9-0.4c-7.5,0-14.8,1.1-22.1,2.6c-16.4,3.3-29.3,11.9-38,26.2
		c-6.9,11.5-9.7,23.9-6.8,37.2c2.5,11.7,9.4,19.8,20.7,23.9c4.5,1.6,9.1,2.8,13.8,3.2c9.9,0.8,19.9,0.7,29.9,0.9
		c5.4-0.1,10.9-0.1,16.3-0.5c5.2-0.3,10.4-0.4,15.7-0.9c3.8-0.4,6.1-2.3,7.1-6c0.5-2,1.2-4.1,1.7-6.1c2.8-12.7,5.6-25.5,8.5-38.2
		c2.6-11.3,4.9-22.6,6.5-34.1C234.8,1886.1,234.2,1885.2,232.4,1884.9z M194.4,1904.2c-2.3,13.6-4.9,27.1-7.8,40.6
		c-0.4,1.7-0.8,3.5-1.1,5.2c-0.2,1.4-1,2-2.4,2.1c-3,0.2-6,0.4-8.9,0.6c-2.8,0.1-5.6-0.1-8.3-0.3c-6-0.4-10.3-3.7-11.8-9.6
		c-1.9-7.3-1.2-14.5,1-21.6c2.8-8.5,8.2-14.6,16.7-17.5c4.3-1.5,8.8-1.6,13.3-1.6c2.8,0,5.6,0.2,8.3,0.5
		C194.4,1902.9,194.5,1903.3,194.4,1904.2z M404.4,1895.1c-2.7-4.8-6.8-8-11.8-10.1c-5.7-2.5-11.6-3.7-17.7-4.4
		c-9.9-1.1-19.6-0.7-29.3,1.5c-4.9,1.1-9.2,3.4-13.2,6.1c-0.5,0.4-0.9,0.6-1.5,0.1c-2.4-2.2-5.3-3.6-8.4-4.7
		c-7.4-2.5-15.1-3.3-22.8-3.6c-10.1-0.4-20.1,0.1-30.1,1.5c-6.5,0.9-12.8,2.2-19,4.4c-4.3,1.6-6.9,4.5-8.1,8.8
		c-0.7,2.6-1.1,5.3-1.6,7.9c-3.1,15.9-6.9,31.6-10.5,47.4c-1.4,6.1-2.8,12.1-4.2,18.2c-0.7,3,0.8,5.2,3.6,5.3
		c10.1,0.2,20.3,0.3,30.4,0.4c1.7,0,2.5-0.6,3-2.3c0.7-2.3,1.4-4.7,1.9-7.1c3-15.3,5.9-30.6,8.8-45.8c0.6-3.2,1-6.6,2.3-9.7
		c0.5-1.3,1.4-2,2.6-2.4c2.2-0.7,4.5-0.9,6.7-1.1c4.5-0.3,9-0.2,13.4,0.8c2.7,0.7,3.6,1.9,3.9,4.6c0.2,2.1-0.3,4-0.7,6
		c-3.2,15.4-6.3,30.9-9.5,46.3c-0.5,2.3-1.2,4.5-1.1,6.9c0.1,2.4,1.4,3.6,3.8,3.6c9.4,0,18.8,0,28.2,0c2.7,0,3.5-0.6,4.2-3.3
		c2-6.7,3.6-13.5,4.9-20.4c2.6-13.2,5.1-26.5,7.4-39.7c0.6-3.2,2.2-4.9,5.3-5.5c4.4-0.9,8.7-1.1,13.1-0.5c2.4,0.3,4.8,0.8,6.9,1.9
		c2.4,1.3,3.3,3.1,2.8,5.8c-0.1,0.5-0.2,1-0.3,1.5c-3.2,16-6.5,32-9.7,47.9c-0.5,2.7-1.1,5.4-1.4,8.1c-0.3,2.5,1,3.9,3.5,4.2
		c0.5,0.1,1.1,0.1,1.6,0.1h11.8c0,0,0,0,0,0c3.6,0,7.1,0,10.7,0c1.6,0,3.2-0.1,4.8-0.4c1.7-0.3,2.5-1.3,2.9-2.9
		c3.8-17.1,7.6-34.3,11.4-51.4c1.2-5.5,2.5-10.9,2.7-16.6C406.4,1899.7,405.6,1897.4,404.4,1895.1z M491.9,1883.5
		c-0.9-0.3-1.8-0.6-2.8-0.8c-14.9-3.7-29.8-3.7-44.8-0.6c-7.4,1.5-14.4,4.1-20.6,8.5c-5.2,3.7-8.3,8.7-9.2,14.9
		c-2,12.7-4.6,25.2-6.9,37.8c-1.5,8-3.5,15.9-4.7,23.9c-0.6,3.8,1,6,4.8,6.5c0.5,0.1,1.1,0.1,1.6,0.1c4.8,0,9.6,0,14.4,0
		c3.4,0,6.9,0.2,10.3-0.1c1.3-0.1,2.3-0.6,3.2-1.4c1.7-1.5,2.6-3.4,3-5.6c3.7-17.8,7.2-35.6,10.8-53.4c0.9-4.6,3-6.6,7.6-7.3
		c4.5-0.7,9.1-0.4,13.7-0.5c4.3,0,8.5,0.1,12.8-0.4c3-0.4,4.6-2,5.3-4.8c0.9-3.6,1.8-7.2,2.7-10.9c0.2-1,0.5-2.1,0.6-3.2
		C494,1884.6,493.5,1884,491.9,1883.5z M607.1,1908.9c-2-11.1-7.7-19.5-17.7-24.7c-6.3-3.3-13.2-4.7-20.1-5.7
		c-7.6-1.1-15.2-0.7-22.8,0.3c-7.4,1-14.7,2.6-21.7,5.2c-14.6,5.4-25.2,15-30.8,29.7c-3.1,8-4.4,16.2-4.4,24.7
		c0,6.8,2.2,12.8,6.3,18.1c5.2,6.8,12.1,11.3,20.2,13.9c8,2.5,16.2,3,24,3.4c11.7,0.3,22.5-1.7,33-5.6c11.3-4.2,20-11.7,26-22.1
		C605.7,1934.6,609.5,1922.4,607.1,1908.9z M560.9,1943.3c-4.4,5.1-10.1,7.9-16.8,8.4c-10,0.8-15.8-7.2-16.5-14.2
		c-0.9-10.8,2-20.5,8.5-29.1c5.7-7.5,13.4-10.4,22.6-9c6.8,1.1,10.7,5.5,11.3,12.7c0.1,1.4,0.2,2.7,0.2,4.1
		C569.3,1926.1,567.6,1935.6,560.9,1943.3z M714.4,1892.7c-0.3,1.4-0.5,2.8-0.7,4.2c-0.3,1.8-0.5,3.6-1,5.3c-0.7,2.2-2.1,3.2-4.3,3
		c-5.8-0.5-11.7-0.9-17.5-1.3c-5.8-0.4-11.7-0.3-17.5-0.7c-4.5-0.3-9,0.3-13.6,0.2c-1.4,0-2.6,0.5-3.7,1.3c-2.2,1.6-2.9,4.4-1.9,6.9
		c0.7,1.5,1.8,2.3,3.3,2.8c3.8,1.2,7.6,2,11.5,2.8c8.6,1.8,17.3,3.4,25.7,6.1c3.4,1.1,6.7,2.3,9.7,4.1c2,1.2,3.9,2.6,5,4.7
		c2.3,4,2.9,8.4,2.3,12.9c-0.8,6.6-4.2,11.9-8.8,16.5c-4.4,4.3-9.8,6.9-15.6,8.7c-8.4,2.5-17,2.9-25.6,3.2
		c-7.2,0.2-14.4-0.3-21.5-0.3c-7.2,0.1-14.5,0.1-21.7,0c-2.5,0-5-0.2-7.5-0.3c-1.8,0-2.9-1.2-3-3c-0.1-1-0.1-2,0.1-3
		c0.6-3.8,1.2-7.6,1.7-11.5c0.2-1.6,1.1-2.4,2.6-2.9c0.8-0.2,1.6-0.3,2.5-0.3c1.7-0.1,3.4,0.3,5.1,0.3c14.8-0.1,29.6,0.3,44.3-0.3
		c2-0.1,4.1,0,6-0.7c2.1-0.7,3.5-2.6,3.4-4.9c0-2-1.2-3.4-3.5-4c-1.8-0.5-3.6-0.9-5.4-1.4c-8.8-2-17.6-3.6-26.2-6.3
		c-4.7-1.5-9.3-3.1-13.6-5.6c-5.6-3.2-8.8-8.1-9.2-14.6c-0.5-7.8,2.5-14.3,7.7-19.9c4.3-4.7,9.9-7.4,15.9-9.5
		c9.9-3.4,20.1-4.6,30.5-4.9c5.3-0.1,10.5-0.2,15.8,0.2c4.8,0.3,9.7,0.7,14.5,1.2c4.9,0.5,9.8,1.3,14.6,2.4c0.1,0,0.1,0,0.1,0
		c0.1,0,0.1,0,0.2,0c0.1,0,0.2-0.1,0.3-0.2c-0.2,0-0.3,0-0.5,0c-1.3-0.3-2.6-0.7-4-1c-8.6-1.6-17.3-2.5-26-2.9
		c-12.4-0.6-24.7-0.2-36.8,2.4c-6.9,1.5-13.6,3.7-19.6,7.7c-7.3,4.8-11.8,11.6-12.9,20.2c-1.1,8.2,1.9,14.8,9.2,19.2
		c1.9,1.2,4,2.1,6,2.9c8,3.3,16.4,5.2,24.8,7c4.9,1.1,9.8,2,14.7,3.3c1.6,0.4,2.8,1.3,3,3.1c0.3,1.8-0.2,3.3-1.7,4.4
		c-1,0.7-2.1,1-3.3,1.1c-1.3,0.1-2.6,0.2-3.9,0.2c-16.4,0.6-32.7,0.4-49.1,0.1c-1.1,0-2.1,0-3.1,0.3c-1.7,0.4-2.6,1.5-2.8,3.2
		c-0.1,1-0.3,2-0.4,3c-0.4,3.6-1.3,7.1-1.4,10.7c-0.1,2.9,1.2,4.1,4,4.2c16.8,0.6,33.6,0.3,50.3,0.4c7.9,0,15.9-0.6,23.6-2.6
		c7.8-2,14.9-5.5,20.1-11.9c4.5-5.5,7.2-11.6,6.7-18.9c-0.5-6.4-3.3-11.3-9.3-14.1c-2.6-1.2-5.3-2.3-8.1-3.2c-8.2-2.6-16.6-4.2-25-6
		c-4.1-0.9-8.2-1.7-12.2-3c-1.1-0.3-2.1-0.8-2.7-1.8c-2.2-3.7,0.2-8.2,4.6-8.4c10.3-0.4,20.5-0.2,30.8,0.3
		c6.1,0.3,12.2,0.8,18.3,1.3c2.2,0.2,3.6-0.7,4.3-2.8c0.3-0.9,0.5-1.8,0.6-2.7c0.4-2.5,0.8-5,1.3-7.5c0.1-0.4-0.1-0.9,0.5-1
		C714.5,1891.6,714.5,1892.2,714.4,1892.7z"/>
	<path class="st5" d="M715.3,1891.1v0.5c-0.6,0.1-0.4,0.6-0.5,1c-0.5,2.5-0.8,5-1.3,7.5c-0.2,0.9-0.3,1.8-0.6,2.7
		c-0.7,2-2.1,3-4.3,2.8c-6.1-0.5-12.2-1-18.3-1.3c-10.2-0.5-20.5-0.8-30.8-0.3c-4.4,0.2-6.8,4.7-4.6,8.4c0.6,1.1,1.6,1.5,2.7,1.8
		c4,1.3,8.1,2.1,12.2,3c8.4,1.8,16.9,3.3,25,6c2.8,0.9,5.5,2,8.1,3.2c6.1,2.8,8.8,7.7,9.3,14.1c0.6,7.3-2.2,13.4-6.7,18.9
		c-5.3,6.4-12.3,9.9-20.1,11.9c-7.7,2-15.7,2.6-23.6,2.6c-16.8-0.1-33.6,0.2-50.3-0.4c-2.8-0.1-4.1-1.3-4-4.2
		c0.1-3.6,1-7.1,1.4-10.7c0.1-1,0.3-2,0.4-3c0.2-1.7,1.1-2.8,2.8-3.2c1-0.2,2-0.3,3.1-0.3c16.4,0.3,32.7,0.5,49.1-0.1
		c1.3-0.1,2.6-0.2,3.9-0.2c1.2-0.1,2.3-0.4,3.3-1.1c1.5-1.1,2-2.6,1.7-4.4c-0.2-1.7-1.4-2.6-3-3.1c-4.9-1.3-9.8-2.3-14.7-3.3
		c-8.4-1.8-16.8-3.8-24.8-7c-2.1-0.8-4.1-1.8-6-2.9c-7.3-4.4-10.3-11-9.2-19.2c1.1-8.6,5.6-15.4,12.9-20.2c6-4,12.6-6.2,19.6-7.7
		c12.2-2.6,24.5-2.9,36.8-2.4c8.7,0.4,17.4,1.3,26,2.9c1.3,0.2,2.7,0.6,4,1c0.1,0,0.2,0.1,0.2,0.2c0.3,0.3,0.1,0.7,0.2,1
		C715.2,1887.3,715,1889.2,715.3,1891.1z"/>
	<path class="st6" d="M715.3,1884.1v7c-0.5-0.3-0.2-0.8-0.2-1.2c-0.2-1.8,0.3-3.7-0.2-5.5c0-0.1,0-0.1,0-0.2
		C714.9,1884.1,715.1,1884.1,715.3,1884.1z"/>
	<path class="st5" d="M406.3,1902.4c-0.2,5.6-1.5,11.1-2.7,16.6c-3.7,17.2-7.6,34.3-11.4,51.4c-0.4,1.6-1.2,2.6-2.9,2.9
		c-1.6,0.3-3.2,0.4-4.8,0.4c-3.6,0-7.1,0-10.7,0c0,0,0,0,0,0H362c-0.5,0-1.1,0-1.6-0.1c-2.5-0.3-3.8-1.7-3.5-4.2
		c0.3-2.7,0.8-5.4,1.4-8.1c3.2-16,6.5-32,9.7-47.9c0.1-0.5,0.2-1,0.3-1.5c0.5-2.7-0.4-4.5-2.8-5.8c-2.2-1.1-4.5-1.6-6.9-1.9
		c-4.4-0.5-8.8-0.4-13.1,0.5c-3.1,0.6-4.7,2.3-5.3,5.5c-2.4,13.3-4.9,26.5-7.4,39.7c-1.3,6.9-2.9,13.7-4.9,20.4
		c-0.8,2.6-1.6,3.2-4.2,3.3c-9.4,0-18.8,0-28.2,0c-2.4,0-3.7-1.2-3.8-3.6c-0.1-2.4,0.7-4.6,1.1-6.9c3.1-15.4,6.3-30.9,9.5-46.3
		c0.4-2,1-4,0.7-6c-0.3-2.7-1.2-3.9-3.9-4.6c-4.4-1.1-8.9-1.1-13.4-0.8c-2.3,0.1-4.5,0.4-6.7,1.1c-1.3,0.4-2.1,1.2-2.6,2.4
		c-1.3,3.1-1.6,6.4-2.3,9.7c-3,15.3-5.8,30.6-8.8,45.8c-0.5,2.4-1.2,4.7-1.9,7.1c-0.5,1.7-1.3,2.3-3,2.3
		c-10.1-0.1-20.3-0.2-30.4-0.4c-2.8,0-4.3-2.3-3.6-5.3c1.4-6.1,2.9-12.1,4.2-18.2c3.5-15.8,7.4-31.5,10.5-47.4
		c0.5-2.6,0.9-5.3,1.6-7.9c1.2-4.4,3.8-7.3,8.1-8.8c6.2-2.2,12.5-3.5,19-4.4c10-1.4,20-1.9,30.1-1.5c7.7,0.3,15.4,1.1,22.8,3.6
		c3.1,1.1,6,2.5,8.4,4.7c0.6,0.6,1,0.3,1.5-0.1c4.1-2.8,8.4-5.1,13.2-6.1c9.7-2.2,19.5-2.6,29.3-1.5c6.1,0.7,12,1.9,17.7,4.4
		c5,2.2,9.1,5.3,11.8,10.1C405.6,1897.4,406.4,1899.7,406.3,1902.4z"/>
	<path class="st5" d="M232.4,1884.9c-12.3-2-24.6-4.4-37.2-4.6c-4.7-0.1-9.3-0.5-13.9-0.4c-7.5,0-14.8,1.1-22.1,2.6
		c-16.4,3.3-29.3,11.9-38,26.2c-6.9,11.5-9.7,23.9-6.8,37.2c2.5,11.7,9.4,19.8,20.7,23.9c4.5,1.6,9.1,2.8,13.8,3.2
		c9.9,0.8,19.9,0.7,29.9,0.9c5.4-0.1,10.9-0.1,16.3-0.5c5.2-0.3,10.4-0.4,15.7-0.9c3.8-0.4,6.1-2.3,7.1-6c0.5-2,1.2-4.1,1.7-6.1
		c2.8-12.7,5.6-25.5,8.5-38.2c2.6-11.3,4.9-22.6,6.5-34.1C234.8,1886.1,234.2,1885.2,232.4,1884.9z M194.4,1904.2
		c-2.3,13.6-4.9,27.1-7.8,40.6c-0.4,1.7-0.8,3.5-1.1,5.2c-0.2,1.4-1,2-2.4,2.1c-3,0.2-6,0.4-8.9,0.6c-2.8,0.1-5.6-0.1-8.3-0.3
		c-6-0.4-10.3-3.7-11.8-9.6c-1.9-7.3-1.2-14.5,1-21.6c2.8-8.5,8.2-14.6,16.7-17.5c4.3-1.5,8.8-1.6,13.3-1.6c2.8,0,5.6,0.2,8.3,0.5
		C194.4,1902.9,194.5,1903.3,194.4,1904.2z"/>
	<path class="st5" d="M607.1,1908.9c-2-11.1-7.7-19.5-17.7-24.7c-6.3-3.3-13.2-4.7-20.1-5.7c-7.6-1.1-15.2-0.7-22.8,0.3
		c-7.4,1-14.7,2.6-21.7,5.2c-14.6,5.4-25.2,15-30.8,29.7c-3.1,8-4.4,16.2-4.4,24.7c0,6.8,2.2,12.8,6.3,18.1
		c5.2,6.8,12.1,11.3,20.2,13.9c8,2.5,16.2,3,24,3.4c11.7,0.3,22.5-1.7,33-5.6c11.3-4.2,20-11.7,26-22.1
		C605.7,1934.6,609.5,1922.4,607.1,1908.9z M560.9,1943.3c-4.4,5.1-10.1,7.9-16.8,8.4c-10,0.8-15.8-7.2-16.5-14.2
		c-0.9-10.8,2-20.5,8.5-29.1c5.7-7.5,13.4-10.4,22.6-9c6.8,1.1,10.7,5.5,11.3,12.7c0.1,1.4,0.2,2.7,0.2,4.1
		C569.3,1926.1,567.6,1935.6,560.9,1943.3z"/>
	<path class="st7" d="M124.7,1875.5c-0.1,1.7-0.4,3.4-0.7,5c-0.8,3.8-2.9,6.9-6.1,9.3c-4.4,3.3-9.5,5.4-14.8,6.8
		c-7.3,1.9-14.7,3.6-22.2,4.9c-0.3,0.1-0.6,0.1-0.9,0.1c-0.3,0-0.8,0.3-0.8-0.3c0.2-0.1,0.4-0.3,0.6-0.4c6.7-4,9.3-9.9,8.6-17.5
		c-0.2-1.9-0.5-3.9-0.8-5.8c-1.1-6.7-7-10-12.1-10.2c-7.9-0.3-15.9,0-23.8,0.1c-6.1,0-12.2,0.2-18.3,0.2c-1.2,0-1.6,0.4-1.9,1.5
		c-4.1,14.3-8.3,28.7-12.4,43c-0.3,1-0.7,1.4-1.7,1.6c-10.1,2.4-20.2,4.9-30,8.5c-4.1,1.5-8.2,3.2-12.1,5.3
		c-0.2,0.1-0.5,0.4-0.9,0.2c0.9-3,1.8-6,2.7-9c5.9-19.5,11.8-39.1,17.9-58.5c1.5-4.9,3.2-9.7,4.8-14.5c0.4-1.4,1.2-1.9,2.6-1.9
		c6.5,0,13,0,19.6-0.1c14-0.1,27.9-0.2,41.9-0.1c9,0.1,17.9,0.3,26.9,1.1c10.1,0.8,19.2,4.2,26.7,11.2
		C122.8,1861.3,125.2,1867.9,124.7,1875.5z"/>
	<path class="st5" d="M493.8,1886.4c-0.1,1.1-0.4,2.1-0.6,3.2c-0.9,3.6-1.8,7.2-2.7,10.9c-0.7,2.8-2.2,4.5-5.3,4.8
		c-4.3,0.5-8.5,0.3-12.8,0.4c-4.6,0-9.1-0.2-13.7,0.5c-4.6,0.7-6.7,2.7-7.6,7.3c-3.5,17.8-7,35.6-10.8,53.4c-0.5,2.2-1.3,4.1-3,5.6
		c-1,0.8-2,1.3-3.2,1.4c-3.4,0.3-6.9,0.1-10.3,0.1c-4.8,0-9.6,0-14.4,0c-0.5,0-1.1,0-1.6-0.1c-3.8-0.4-5.4-2.7-4.8-6.5
		c1.2-8,3.2-15.9,4.7-23.9c2.4-12.6,4.9-25.2,6.9-37.8c1-6.2,4.1-11.3,9.2-14.9c6.2-4.4,13.2-6.9,20.6-8.5c15-3.1,29.9-3.1,44.8,0.6
		c0.9,0.2,1.8,0.5,2.8,0.8C493.5,1884,494,1884.6,493.8,1886.4z"/>
	<path class="st7" d="M112.7,1973.4c-0.2,0.4-0.7,0.2-1.1,0.2c-8.1,0-16.3,0-24.4,0v0.1c-8.1,0-16.1,0-24.2,0
		c-1.1,0-1.7-0.4-2.3-1.3c-5.7-9.2-11.3-18.4-17.5-27.2c-2.6-3.7-5.5-7.2-8.8-10.3c-0.2-0.1-0.3-0.3-0.4-0.5c-0.9-1-0.8-1.2,0.5-1.5
		c14.8-3.6,29.7-6.5,44.8-8.8c1-0.1,1.5,0,2.1,0.9c10.2,15.8,20.5,31.6,30.8,47.4C112.4,1972.7,112.9,1973,112.7,1973.4z"/>
	<path class="st5" d="M119.5,1894.7c0,0.5-0.4,0.9-0.7,1.3c-5.6,8.6-13.6,14.3-23,18.1c-7.8,3.1-15.9,5.1-24.1,6.5
		C54.2,1923.4,37,1927,20,1932c-14.8,4.4-29.2,9.8-43.2,16.3c-3.4,1.6-6.7,3.3-10.4,5c1.6-5.2,3.1-10,4.6-14.8
		c0-0.1,0.1-0.1,0.1-0.2c0.4-3.7,2.8-5.4,6.1-6.8c13.4-5.6,27.2-9.7,41.2-13.1c18.3-4.5,36.8-7.9,55.5-10.8
		c10.7-1.7,21.4-3.5,31.8-6.4c4.6-1.3,8.8-3.2,12.7-6c0.2-0.2,0.5-0.3,0.7-0.5C119.3,1894.6,119.4,1894.7,119.5,1894.7z"/>
	<path class="st7" d="M14.2,1938.8c-0.6,2.4-1.2,4.8-1.8,7.1c-2.2,8.9-4.4,17.8-6.5,26.7c-0.3,1.2-0.7,1.5-1.9,1.4
		c-14.1-0.2-28.1-0.3-42.2-0.3c-1.2,0-1.4-0.3-1-1.4c1.3-3.9,2.5-7.9,3.7-11.9c0.2-0.7,0.6-1,1.2-1.3c6.7-3.4,13.5-6.6,20.3-9.7
		c8.6-3.9,17.4-7.5,26.4-10.3C13,1939,13.5,1938.7,14.2,1938.8z"/>
	<path class="st8" d="M80,1901.6c-0.5,0.3-1,0.2-1.6,0.2c0.1-0.4,0.4-0.5,0.8-0.6C79.3,1901.7,79.7,1901.5,80,1901.6z"/>
</g>
<g>
	<path class="st4" d="M716.1,775.9c-0.3,1.4-0.5,2.8-0.7,4.2c-0.3,1.8-0.5,3.6-1,5.3c-0.7,2.2-2.1,3.2-4.3,3
		c-5.8-0.5-11.7-0.9-17.5-1.3c-5.9-0.4-11.7-0.3-17.6-0.7c-4.5-0.3-9.1,0.3-13.6,0.2c-1.4,0-2.6,0.5-3.7,1.3
		c-2.2,1.6-2.9,4.4-1.9,6.9c0.7,1.5,1.8,2.3,3.3,2.8c3.8,1.2,7.6,2,11.5,2.8c8.6,1.8,17.3,3.4,25.7,6.1c3.4,1.1,6.7,2.3,9.8,4.1
		c2,1.2,3.9,2.6,5.1,4.7c2.3,4,2.9,8.4,2.3,12.9c-0.8,6.6-4.2,12-8.9,16.5c-4.4,4.3-9.8,6.9-15.7,8.7c-8.4,2.5-17,2.9-25.7,3.2
		c-7.2,0.2-14.4-0.3-21.6-0.3c-7.2,0.1-14.5,0.1-21.7,0c-2.5,0-5-0.2-7.5-0.3c-1.8,0-2.9-1.2-3-3c-0.1-1-0.1-2,0.1-3
		c0.6-3.8,1.2-7.7,1.7-11.5c0.2-1.6,1.1-2.5,2.6-2.9c0.8-0.2,1.6-0.3,2.5-0.3c1.7-0.1,3.4,0.3,5.1,0.3c14.8-0.1,29.6,0.3,44.5-0.3
		c2-0.1,4.1,0,6.1-0.7c2.1-0.7,3.5-2.6,3.4-4.9c0-2-1.2-3.4-3.5-4c-1.8-0.5-3.6-0.9-5.5-1.4c-8.8-2-17.6-3.6-26.2-6.3
		c-4.7-1.5-9.3-3.1-13.6-5.6c-5.6-3.3-8.8-8.2-9.3-14.7c-0.5-7.8,2.6-14.3,7.7-20c4.3-4.7,10-7.5,15.9-9.5
		c9.9-3.4,20.2-4.7,30.6-4.9c5.3-0.1,10.6-0.2,15.9,0.2c4.9,0.3,9.7,0.7,14.5,1.2c4.9,0.5,9.8,1.4,14.6,2.4c0.1,0,0.1,0,0.1,0
		c0.1,0,0.1,0,0.2,0c0.1,0,0.2-0.1,0.3-0.2c-0.2,0-0.3,0-0.5,0c-1.3-0.3-2.7-0.7-4-1c-8.6-1.6-17.3-2.5-26-2.9
		c-12.4-0.6-24.7-0.2-36.9,2.4c-7,1.5-13.6,3.7-19.6,7.7c-7.3,4.8-11.8,11.6-12.9,20.3c-1.1,8.2,1.9,14.9,9.2,19.3
		c1.9,1.2,4,2.1,6.1,2.9c8,3.3,16.4,5.2,24.8,7c4.9,1.1,9.9,2,14.7,3.3c1.6,0.4,2.8,1.3,3,3.1c0.3,1.8-0.2,3.3-1.7,4.4
		c-1,0.7-2.1,1-3.3,1.1c-1.3,0.1-2.6,0.2-3.9,0.2c-16.4,0.6-32.8,0.4-49.2,0.1c-1.1,0-2.1,0-3.1,0.3c-1.7,0.4-2.6,1.5-2.8,3.2
		c-0.1,1-0.3,2-0.4,3c-0.4,3.6-1.3,7.1-1.4,10.8c-0.1,2.9,1.2,4.1,4,4.2c16.8,0.6,33.6,0.3,50.5,0.4c8,0,15.9-0.6,23.7-2.6
		c7.9-2.1,14.9-5.6,20.2-12c4.5-5.5,7.2-11.6,6.7-18.9c-0.5-6.4-3.3-11.3-9.3-14.1c-2.6-1.2-5.3-2.3-8.1-3.2
		c-8.2-2.6-16.7-4.2-25.1-6c-4.1-0.9-8.2-1.7-12.2-3c-1.1-0.3-2.1-0.8-2.7-1.8c-2.2-3.7,0.2-8.2,4.6-8.4c10.3-0.4,20.6-0.2,30.8,0.3
		c6.1,0.3,12.2,0.8,18.3,1.3c2.2,0.2,3.6-0.7,4.3-2.8c0.3-0.9,0.5-1.8,0.6-2.7c0.4-2.5,0.8-5,1.3-7.5c0.1-0.4-0.1-0.9,0.5-1
		C716.2,774.8,716.2,775.4,716.1,775.9z"/>
	<path class="st5" d="M717,774.3v0.5c-0.6,0.1-0.4,0.6-0.5,1c-0.5,2.5-0.9,5-1.3,7.5c-0.2,0.9-0.3,1.8-0.6,2.7
		c-0.7,2.1-2.1,3-4.3,2.8c-6.1-0.5-12.2-1-18.3-1.3c-10.3-0.5-20.6-0.8-30.8-0.3c-4.4,0.2-6.8,4.7-4.6,8.4c0.6,1.1,1.6,1.5,2.7,1.8
		c4,1.3,8.1,2.1,12.2,3c8.4,1.8,16.9,3.3,25.1,6c2.8,0.9,5.5,2,8.1,3.2c6.1,2.8,8.8,7.7,9.3,14.1c0.6,7.3-2.2,13.4-6.7,18.9
		c-5.3,6.4-12.3,9.9-20.2,12c-7.8,2-15.7,2.6-23.7,2.6c-16.8-0.1-33.6,0.2-50.5-0.4c-2.8-0.1-4.1-1.3-4-4.2c0.1-3.6,1-7.2,1.4-10.8
		c0.1-1,0.3-2,0.4-3c0.2-1.7,1.1-2.8,2.8-3.2c1-0.2,2-0.3,3.1-0.3c16.4,0.3,32.8,0.5,49.2-0.1c1.3-0.1,2.6-0.2,3.9-0.2
		c1.2-0.1,2.3-0.4,3.3-1.1c1.5-1.1,2-2.6,1.7-4.4c-0.2-1.7-1.4-2.6-3-3.1c-4.9-1.3-9.8-2.3-14.7-3.3c-8.4-1.8-16.8-3.8-24.8-7
		c-2.1-0.9-4.1-1.8-6.1-2.9c-7.3-4.4-10.3-11-9.2-19.3c1.1-8.7,5.6-15.4,12.9-20.3c6-4,12.7-6.2,19.6-7.7
		c12.2-2.6,24.5-2.9,36.9-2.4c8.7,0.4,17.4,1.3,26,2.9c1.3,0.2,2.7,0.6,4,1c0.1,0,0.2,0.1,0.2,0.2c0.3,0.3,0.1,0.7,0.2,1
		C716.9,770.4,716.7,772.4,717,774.3z"/>
	<path class="st6" d="M717,767.3v7c-0.5-0.3-0.2-0.8-0.2-1.2c-0.2-1.9,0.3-3.7-0.2-5.6c0-0.1,0-0.1,0-0.2
		C716.7,767.3,716.8,767.3,717,767.3z"/>
	<path class="st5" d="M407.2,785.6c-0.2,5.7-1.5,11.1-2.7,16.6c-3.7,17.2-7.6,34.4-11.4,51.5c-0.4,1.6-1.2,2.6-2.9,2.9
		c-1.6,0.3-3.2,0.4-4.8,0.4c-3.6,0-7.2,0-10.7,0c0,0,0,0,0,0h-11.9c-0.5,0-1.1,0-1.6-0.1c-2.5-0.3-3.8-1.7-3.5-4.2
		c0.3-2.7,0.8-5.4,1.4-8.1c3.2-16,6.5-32,9.7-48.1c0.1-0.5,0.2-1,0.3-1.5c0.5-2.7-0.4-4.5-2.8-5.8c-2.2-1.1-4.5-1.6-6.9-1.9
		c-4.4-0.5-8.8-0.4-13.2,0.5c-3.1,0.6-4.7,2.3-5.3,5.6c-2.4,13.3-4.9,26.6-7.5,39.8c-1.3,6.9-2.9,13.7-4.9,20.5
		c-0.8,2.6-1.6,3.3-4.3,3.3c-9.4,0-18.8,0-28.2,0c-2.4,0-3.7-1.2-3.8-3.7c-0.1-2.4,0.7-4.6,1.1-6.9c3.1-15.5,6.3-31,9.5-46.4
		c0.4-2,1-4,0.7-6c-0.3-2.7-1.2-4-3.9-4.6c-4.4-1.1-8.9-1.1-13.4-0.8c-2.3,0.1-4.6,0.4-6.8,1.1c-1.3,0.4-2.1,1.2-2.6,2.4
		c-1.3,3.1-1.6,6.5-2.3,9.7c-3,15.3-5.9,30.6-8.8,45.9c-0.5,2.4-1.2,4.8-1.9,7.1c-0.5,1.7-1.3,2.3-3,2.3
		c-10.2-0.1-20.3-0.2-30.5-0.4c-2.8,0-4.3-2.3-3.6-5.3c1.4-6.1,2.9-12.1,4.2-18.2c3.6-15.8,7.4-31.6,10.5-47.5
		c0.5-2.6,0.9-5.3,1.6-7.9c1.2-4.4,3.8-7.3,8.2-8.9c6.2-2.2,12.6-3.5,19.1-4.4c10-1.4,20.1-1.9,30.2-1.5c7.7,0.3,15.4,1.1,22.8,3.6
		c3.1,1.1,6,2.5,8.5,4.7c0.6,0.6,1,0.3,1.5-0.1c4.1-2.8,8.4-5.1,13.3-6.2c9.7-2.2,19.5-2.6,29.4-1.5c6.1,0.7,12.1,1.9,17.7,4.4
		c5,2.2,9.1,5.3,11.8,10.2C406.6,780.6,407.4,782.9,407.2,785.6z"/>
	<path class="st5" d="M232.9,768c-12.4-2-24.7-4.4-37.2-4.6c-4.7-0.1-9.3-0.5-14-0.4c-7.5,0-14.8,1.1-22.2,2.6
		c-16.5,3.3-29.4,11.9-38.1,26.3c-7,11.5-9.7,23.9-6.8,37.3c2.5,11.7,9.4,19.8,20.8,23.9c4.5,1.6,9.1,2.8,13.8,3.2
		c10,0.8,20,0.7,30,0.9c5.5-0.1,10.9-0.1,16.4-0.5c5.2-0.3,10.5-0.4,15.7-0.9c3.8-0.4,6.1-2.3,7.1-6c0.5-2.1,1.2-4.1,1.7-6.1
		c2.9-12.8,5.6-25.5,8.5-38.3c2.6-11.3,4.9-22.7,6.6-34.2C235.3,769.2,234.8,768.3,232.9,768z M194.8,787.4
		c-2.3,13.6-4.9,27.2-7.8,40.7c-0.4,1.7-0.8,3.5-1.1,5.2c-0.2,1.4-1,2-2.4,2.1c-3,0.2-6,0.4-9,0.6c-2.8,0.1-5.6-0.1-8.4-0.3
		c-6-0.4-10.3-3.8-11.8-9.6c-1.9-7.3-1.2-14.5,1-21.7c2.8-8.5,8.2-14.6,16.7-17.6c4.3-1.5,8.8-1.6,13.3-1.6c2.8,0,5.6,0.2,8.3,0.5
		C194.9,786.1,195,786.5,194.8,787.4z"/>
	<path class="st5" d="M608.5,792.1c-2-11.1-7.7-19.5-17.8-24.8c-6.3-3.3-13.2-4.7-20.2-5.7c-7.6-1.1-15.3-0.7-22.9,0.3
		c-7.4,1-14.7,2.6-21.8,5.2c-14.6,5.4-25.2,15-30.9,29.8c-3.1,8-4.4,16.3-4.5,24.8c0,6.8,2.2,12.8,6.3,18.2
		c5.2,6.8,12.1,11.3,20.2,13.9c8,2.5,16.3,3.1,24.1,3.4c11.7,0.3,22.6-1.7,33.1-5.6c11.4-4.2,20-11.7,26.1-22.2
		C607.1,817.9,611,805.7,608.5,792.1z M562.2,826.6c-4.5,5.1-10.1,7.9-16.9,8.4c-10,0.8-15.9-7.2-16.5-14.3
		c-0.9-10.8,2-20.6,8.5-29.2c5.7-7.5,13.4-10.5,22.7-9c6.8,1.1,10.7,5.6,11.3,12.8c0.1,1.4,0.2,2.7,0.2,4.1
		C570.6,809.3,569,818.9,562.2,826.6z"/>
	<path class="st7" d="M125,758.6c-0.1,1.7-0.4,3.4-0.7,5.1c-0.8,3.9-3,6.9-6.1,9.3c-4.5,3.3-9.5,5.5-14.9,6.8
		c-7.4,1.9-14.8,3.6-22.3,4.9c-0.3,0.1-0.6,0.1-0.9,0.1c-0.3,0-0.8,0.3-0.8-0.3c0.2-0.1,0.4-0.3,0.6-0.4c6.7-4,9.3-9.9,8.6-17.5
		c-0.2-1.9-0.5-3.9-0.8-5.8c-1.1-6.7-7-10-12.1-10.2c-7.9-0.3-15.9,0-23.8,0.1c-6.1,0-12.2,0.2-18.4,0.2c-1.2,0-1.6,0.4-1.9,1.5
		c-4.1,14.4-8.3,28.7-12.5,43.1c-0.3,1-0.7,1.4-1.7,1.6c-10.2,2.4-20.3,4.9-30.1,8.5c-4.2,1.5-8.2,3.2-12.1,5.4
		c-0.2,0.1-0.5,0.4-0.9,0.2c0.9-3,1.8-6,2.7-9.1c5.9-19.6,11.8-39.2,18-58.7c1.5-4.9,3.2-9.7,4.8-14.6c0.4-1.4,1.2-1.9,2.6-1.9
		c6.5,0,13.1,0,19.6-0.1c14-0.1,28-0.2,42-0.1c9,0.1,18,0.3,26.9,1.1c10.1,0.8,19.3,4.2,26.7,11.2C123.1,744.4,125.4,751,125,758.6z
		"/>
	<path class="st5" d="M495,769.5c-0.1,1.1-0.4,2.1-0.6,3.2c-0.9,3.6-1.8,7.3-2.7,10.9c-0.7,2.8-2.2,4.5-5.3,4.8
		c-4.3,0.5-8.6,0.3-12.8,0.4c-4.6,0-9.2-0.2-13.7,0.5c-4.6,0.7-6.7,2.7-7.6,7.3c-3.5,17.8-7.1,35.7-10.8,53.5
		c-0.5,2.2-1.3,4.1-3,5.6c-1,0.8-2,1.3-3.3,1.4c-3.5,0.3-6.9,0.1-10.4,0.1c-4.8,0-9.7,0-14.5,0c-0.5,0-1.1,0-1.6-0.1
		c-3.8-0.4-5.4-2.7-4.8-6.5c1.2-8.1,3.2-16,4.7-24c2.4-12.6,4.9-25.2,6.9-37.9c1-6.2,4.1-11.3,9.3-15c6.2-4.4,13.2-6.9,20.6-8.5
		c15-3.2,30-3.1,44.9,0.6c0.9,0.2,1.8,0.5,2.8,0.8C494.7,767.1,495.2,767.8,495,769.5z"/>
	<path class="st7" d="M112.9,856.7c-0.2,0.4-0.7,0.2-1.1,0.2c-8.2,0-16.3,0-24.5,0v0.1c-8.1,0-16.2,0-24.2,0c-1.1,0-1.7-0.4-2.3-1.3
		c-5.7-9.2-11.3-18.4-17.6-27.3c-2.6-3.7-5.5-7.2-8.8-10.4c-0.2-0.1-0.3-0.3-0.4-0.5c-0.9-1-0.8-1.2,0.5-1.5
		c14.9-3.6,29.8-6.5,44.9-8.9c1-0.1,1.5,0,2.1,0.9c10.3,15.9,20.6,31.7,30.9,47.5C112.7,856.1,113.1,856.4,112.9,856.7z"/>
	<path class="st7" d="M14.1,822.1c-0.6,2.4-1.2,4.8-1.8,7.1c-2.2,8.9-4.4,17.8-6.5,26.8c-0.3,1.2-0.7,1.5-1.9,1.5
		c-14.1-0.2-28.2-0.3-42.3-0.3c-1.2,0-1.4-0.3-1-1.4c1.3-4,2.5-7.9,3.8-11.9c0.2-0.7,0.6-1,1.2-1.3c6.7-3.4,13.5-6.6,20.4-9.7
		c8.6-4,17.4-7.5,26.5-10.3C13,822.3,13.4,822,14.1,822.1z"/>
	<path class="st8" d="M80.1,784.8c-0.5,0.3-1,0.2-1.6,0.2c0.1-0.4,0.4-0.5,0.8-0.6C79.5,784.9,79.8,784.7,80.1,784.8z"/>
</g>
<g>
	<path class="st9" d="M-1920.7,1163.9c0,9,2.8,19.5,7.7,27c3.3,5,4.6,6.4,8.6,10.5l1.6,1.5c4.5,3.5,3.8,3.2,9.4,6.4
		c6.1,3.5,15.7,6,22.6,6l5.6-0.1c0.5,0,0.4-0.1,1-0.1v-15.4l-3.6,0.2c-6.1,0-9.9-0.6-15-2.6c-3.2-1.3-5.9-2.9-8.6-5l-3.1-2.7
		c-1-1-3-3.3-3.6-4.3c-1.9-2.9-2.8-4-4.2-7.5c-0.4-1-0.7-1.8-1.1-2.9c-0.2-0.7-0.8-2.4-0.8-3.2h29.9v-15.4h-29.9
		c0.1-2.7,3.2-9,4.4-11.1l2.4-3.4c0.3-0.4,0.6-0.7,0.9-1.1l2.8-2.9c2.4-1.9,3.7-3.4,6.8-5c0.5-0.3,0.8-0.5,1.2-0.7
		c0.9-0.4,1.7-0.8,2.7-1.2c4.8-1.9,11.3-3.2,17.2-2.6c0.5,0.1,1.2,0.1,1.7,0.1V1113l-1.8-0.1c-0.4,0-0.8-0.1-1.3-0.1h-4
		c-3.8,0.2-7.8,0.8-10.6,1.5c-4.8,1.2-5.4,1.7-9.4,3.3c-0.6,0.3-1.5,0.7-2.1,1c-5.3,3.1-5.7,3.4-10.2,7.1c-0.4,0.3-0.5,0.4-0.8,0.7
		c-4.2,4.3-5.2,5.2-8.5,10.4c-3.1,4.7-5.2,10.3-6.5,15.7c-0.4,1.7-0.7,3.6-0.9,5.4C-1920.6,1159.8-1920.7,1162-1920.7,1163.9"/>
	<path class="st9" d="M-1981.1,1162.5c0,5.6,0.1,8.5,1.5,14c0.4,1.6,0.9,3.3,1.5,4.8c1.2,3.1,2.2,5.6,3.9,8.5
		c0.8,1.4,1.6,2.5,2.4,3.8c0.4,0.6,0.9,1.2,1.3,1.8c0.5,0.6,0.9,1.1,1.4,1.7l4.6,4.8c0.3,0.3,0.5,0.5,0.8,0.8
		c1.5,1.1,2.4,2.1,4.4,3.4l3.8,2.4c1.3,0.8,2.7,1.4,4.1,2.1c0.7,0.4,1.4,0.6,2.2,0.9c0.8,0.3,1.4,0.6,2.3,0.8
		c1.6,0.5,3.1,1.1,4.8,1.5c3.5,0.9,7.3,1.4,11.1,1.5h3.1c0.8,0,1.6-0.1,2.4-0.1c0.5,0,0.4-0.1,1-0.1v-15.4c-0.5,0-0.5,0.1-0.9,0.1
		c-6.5,0.7-14-0.6-19.3-3.1c-0.5-0.3-1-0.4-1.5-0.7c-1.3-0.8-2.8-1.6-4.1-2.5c-4.7-3.5-7.3-6.2-10.5-11.4
		c-2.7-4.4-4.8-11.4-4.8-17.2c0-6.1,1-11.1,3.3-15.8c0.6-1.1,0.7-1.6,1.4-2.9c0.6-0.9,1.1-1.9,1.7-2.7c3.5-4.7,6.3-7.4,11.4-10.5
		c4.6-2.8,11.6-4.8,17.2-4.8c1.5,0,3.7,0,5.1,0.1c0.4,0,0.3,0.1,0.9,0.1V1113l-1.9-0.1c-0.4,0-0.8-0.1-1.2-0.1h-4
		c-3.8,0.2-7.7,0.8-10.5,1.5c-7.1,1.8-13,4.8-18.9,9.2l-3.4,2.9c-0.3,0.3-0.5,0.4-0.8,0.7l-3.7,4c-0.9,1.2-1.9,2.3-2.7,3.5
		c-3.3,4.9-4.2,6.7-6.4,12.3c-0.6,1.5-1,3.1-1.5,4.8C-1980.4,1154.7-1981.1,1158.7-1981.1,1162.5"/>
</g>
<g>
	<path class="st9" d="M-2084.1,1914.3c0,11.4,3.5,24.5,9.7,34c4.1,6.3,5.8,8.1,10.8,13.2l2.1,1.9c5.7,4.4,4.8,4,11.8,8
		c7.7,4.4,19.8,7.5,28.5,7.5l7.1-0.1c0.7,0,0.5-0.1,1.2-0.2v-19.4l-4.5,0.3c-7.7,0-12.4-0.7-18.9-3.3c-4.1-1.6-7.5-3.7-10.9-6.3
		l-4-3.4c-1.2-1.2-3.7-4.1-4.6-5.4c-2.4-3.6-3.5-5-5.3-9.4c-0.5-1.3-0.9-2.3-1.3-3.6c-0.3-0.9-1-3-1-4h37.6v-19.4h-37.6
		c0.1-3.3,4-11.4,5.6-14l3-4.2c0.4-0.5,0.8-0.9,1.2-1.4l3.5-3.7c3-2.4,4.7-4.3,8.5-6.2c0.6-0.3,1-0.6,1.6-0.9
		c1.1-0.6,2.1-1.1,3.4-1.6c6.1-2.4,14.2-4,21.6-3.3c0.6,0.1,1.6,0.2,2.1,0.2v-19.4l-2.2-0.2c-0.5-0.1-1-0.1-1.6-0.1h-5.1
		c-4.7,0.2-9.8,1-13.3,1.9c-6,1.5-6.8,2.1-11.8,4.2c-0.8,0.3-1.9,0.9-2.6,1.3c-6.7,3.9-7.2,4.2-12.8,9c-0.5,0.4-0.6,0.5-1,0.9
		c-5.3,5.4-6.5,6.6-10.7,13c-3.9,5.9-6.5,13-8.2,19.8c-0.5,2.1-0.9,4.5-1.2,6.8C-2083.9,1909-2084.1,1911.8-2084.1,1914.3"/>
	<path class="st9" d="M-2160.1,1912.5c0,7.1,0.2,10.7,1.9,17.6c0.5,2.1,1.1,4.1,1.8,6c1.5,3.9,2.8,7.1,4.9,10.7c1,1.7,2,3.2,3.1,4.8
		c0.5,0.8,1.1,1.5,1.7,2.2c0.6,0.8,1.1,1.4,1.7,2.2l5.8,6c0.4,0.4,0.6,0.6,1,0.9c1.9,1.4,3,2.7,5.5,4.3l4.8,3c1.7,1,3.3,1.8,5.1,2.7
		c0.9,0.4,1.8,0.8,2.7,1.2c1,0.4,1.8,0.7,2.9,1.1c2,0.7,3.9,1.3,6,1.8c4.4,1.1,9.1,1.7,13.9,1.8h3.9c1,0,2.1-0.1,3.1-0.2
		c0.6,0,0.5-0.1,1.2-0.1v-19.4c-0.6,0-0.6,0.1-1.1,0.1c-8.2,0.9-17.6-0.7-24.3-3.9c-0.7-0.3-1.2-0.5-1.9-0.9c-1.6-1-3.6-2-5.1-3.1
		c-5.9-4.4-9.2-7.8-13.2-14.4c-3.4-5.6-6.1-14.3-6.1-21.7c0-7.7,1.3-14,4.1-19.8c0.7-1.4,0.9-2.1,1.8-3.6c0.7-1.2,1.4-2.3,2.2-3.4
		c4.4-6,7.9-9.2,14.4-13.2c5.8-3.6,14.6-6,21.7-6c1.8,0,4.7,0,6.4,0.2c0.5,0,0.4,0.1,1.1,0.1v-19.4l-2.4-0.2c-0.5-0.1-1-0.1-1.6-0.1
		h-5.1c-4.7,0.2-9.7,1-13.2,1.9c-8.9,2.2-16.4,6-23.7,11.5l-4.2,3.6c-0.4,0.4-0.6,0.5-1.1,0.9l-4.7,5.1c-1.2,1.5-2.4,2.9-3.4,4.4
		c-4.1,6.2-5.3,8.5-8,15.5c-0.7,1.9-1.3,3.9-1.8,6C-2159.2,1902.6-2160.1,1907.7-2160.1,1912.5"/>
</g>
<g>
	<path class="st9" d="M-3057.4,1242.5c0,22.5,7,48.5,19.1,67.2c8.1,12.5,11.4,16,21.3,26l4.1,3.7c11.2,8.7,9.5,7.8,23.4,15.9
		c15.1,8.8,39.1,14.9,56.3,14.9l14-0.3c1.3-0.1,1.1-0.3,2.4-0.3v-38.4l-8.9,0.6c-15.3,0-24.6-1.4-37.3-6.5
		c-8.1-3.2-14.8-7.2-21.5-12.5l-7.8-6.8c-2.4-2.4-7.4-8.1-9.1-10.6c-4.8-7.1-6.8-9.9-10.5-18.6c-1-2.5-1.7-4.5-2.6-7.2
		c-0.6-1.8-1.9-5.9-2-7.8h74.4v-38.4h-74.4c0.2-6.6,7.9-22.5,11-27.7l5.9-8.4c0.8-1,1.5-1.8,2.3-2.8l7-7.3
		c5.9-4.7,9.3-8.5,16.8-12.3c1.2-0.6,1.9-1.1,3.1-1.7c2.2-1.1,4.2-2.1,6.7-3.1c12-4.8,28.2-8,42.8-6.5c1.3,0.1,3.1,0.3,4.1,0.3
		v-38.4l-4.4-0.3c-1-0.1-2.1-0.2-3.1-0.3h-10c-9.4,0.5-19.3,2-26.3,3.8c-11.8,3-13.5,4.2-23.3,8.3c-1.6,0.7-3.8,1.7-5.2,2.6
		c-13.2,7.7-14.2,8.4-25.4,17.8c-0.9,0.8-1.2,0.9-2.1,1.8c-10.5,10.6-12.8,13-21.2,25.8c-7.7,11.6-12.9,25.7-16.2,39.2
		c-1,4.2-1.8,8.9-2.3,13.5C-3057,1232.1-3057.4,1237.7-3057.4,1242.5"/>
	<path class="st9" d="M-3207.7,1238.9c0,14,0.3,21.1,3.7,34.7c1,4.1,2.2,8.1,3.6,11.9c3,7.7,5.5,14,9.8,21.2c2,3.4,3.9,6.2,6.1,9.4
		c1.1,1.6,2.2,2.9,3.3,4.4c1.2,1.6,2.2,2.7,3.4,4.3l11.6,12c0.8,0.8,1.2,1.2,2,1.9c3.7,2.9,6,5.3,10.8,8.5l9.5,6
		c3.3,2,6.6,3.5,10.2,5.3c1.8,0.9,3.5,1.6,5.4,2.3c2,0.8,3.6,1.4,5.6,2.1c3.9,1.4,7.8,2.6,11.8,3.6c8.6,2.1,18.1,3.4,27.5,3.6h7.7
		c2-0.1,4.1-0.2,6.1-0.3c1.1-0.1,1-0.3,2.4-0.3v-38.4c-1.3,0-1.2,0.2-2.1,0.2c-16.2,1.7-34.8-1.4-48.1-7.8c-1.4-0.7-2.4-1-3.7-1.7
		c-3.2-1.9-7-3.9-10.2-6.2c-11.6-8.6-18.2-15.5-26.1-28.4c-6.7-11-12-28.3-12-42.8c0-15.3,2.5-27.6,8.1-39.2
		c1.4-2.9,1.8-4.1,3.6-7.1c1.4-2.4,2.7-4.6,4.3-6.7c8.8-11.8,15.6-18.3,28.4-26.1c11.6-7,28.9-12,42.8-12c3.6,0,9.3,0,12.8,0.3
		c0.9,0.1,0.9,0.2,2.1,0.2v-38.4l-4.7-0.3c-1-0.1-2-0.2-3.1-0.3h-10c-9.4,0.4-19.3,2-26.1,3.7c-17.7,4.4-32.4,11.9-46.9,22.8
		l-8.4,7.1c-0.8,0.8-1.3,1-2.1,1.8l-9.3,10c-2.3,2.9-4.7,5.6-6.7,8.7c-8.1,12.2-10.5,16.7-15.8,30.6c-1.4,3.7-2.6,7.8-3.6,11.9
		C-3205.9,1219.4-3207.7,1229.5-3207.7,1238.9"/>
</g>
<g>
	<path class="st9" d="M-1666,1197.4l0.6-0.9l-1.2,0.4c-1,0.6-5,4.3-6.7,5.5c-2.1,1.5-5.4,3.4-7.9,4.5c-5.3,2.2-13,5-20.5,5h-7.7
		c-24.4,0-47.2-20.8-47.2-42.3v-4.2c0-7.4,4.9-16.7,8.6-21.4c6.5-8.2,9.6-8.2,17.2-13.9l3.4-0.9l0.4-5.7l-3.8,2.4
		c-0.6-0.4-1.7-0.8-1.7-1.5c0-1.7,2.6-2.8,3.8-3.8c-1.9-0.4-1.8-0.9-3.8-0.9h-0.5c-1.3,0-2,0.9-2.7,1.4c-7.1,4.1-14,10.6-19.3,16.4
		c-3.8,4.1-10.9,16.8-10.9,23.6v10.8c0,25.5,27.5,43.3,58.2,43.3C-1690.8,1215.3-1672.7,1206-1666,1197.4 M-1728,1186.6l0.6,0.9
		l1.6,0c-0.2-2.2-1.1-3.3-3.8-3.3c-2.3,0-3.8,2.3-3.8,4.2v2.4c0,1.4,1,3.8,2.7,3.8h2.2c1.3,0,2.7-1.3,2.7-2.4v-1.4
		c-4.6,0.3-0.2,2.8-3.8,2.8c-0.7,0-1.6-1-1.6-1.9v-4.2c0-1.1,0.9-1.9,2.2-1.9C-1728.4,1185.6-1728.3,1186.2-1728,1186.6z
		 M-1695.6,1194.6h6.6v-1.4h-4.9v-8.5h-1.6V1194.6z M-1708.3,1189.4l0-1l1.1-1.4v7.5h1.6v-9.9h-3.3l-1.1,5.2v1.4h-1.1v-1.4l-1.3-5.1
		l-3.1,0v9.9h1.6v-7.1l2.3,7l2.1,0L-1708.3,1189.4z M-1719.8,1194.6c2.4,0,2.7-3,2.7-5.2v-0.5c0-1.9-0.6-4.2-2.7-4.2h-2.2
		c-1.8,0-2.7,1.7-2.7,3.3v3.3c0,1.6,1,3.3,2.7,3.3H-1719.8z M-1722.5,1188c0-1.3,0.3-1.3,0.6-2.3h2.2c0.3,1.1,0.5,1.1,0.5,2.3v3.3
		c0,1.3-0.3,1.3-0.5,2.4h-2.2c-0.3-1.1-0.6-1.1-0.6-2.4V1188z M-1662.7,1186.1l2.2-0.5l0-0.9h-7.1v1.4h2.7v8.5h2.2V1186.1z
		 M-1688.5,1194.6h2.2v-9.9h-2.2V1194.6z M-1675.9,1194.6h1.6v-6.6l3.3,6.6l2.2,0v-9.9h-1.6v6.1h-1.1l-2.2-6.1h-2.2V1194.6z
		 M-1683.6,1194.6c0-1.5-0.1-2.4,1.6-2.4h1.1c1.8,0,1.6,0.8,1.6,2.4h2.2l-3-9.8l-3-0.1l-2.7,9.9L-1683.6,1194.6z M-1681.8,1187l1,0
		l1,4l-2.9,0L-1681.8,1187z M-1703.3,1194.6h1.6v-4.2h1.6c1.5,0,1.5-0.2,2.7-0.5c0.3-1.1,0.5-1.1,0.5-2.4c0-2.1-0.7-2.1-2.2-2.8
		h-4.4V1194.6z M-1701.7,1186.1h2.7v1.9c0,1.6-1,1.4-2.7,1.4V1186.1z M-1655,1152.7l0.6,4.2l9.3,0v-4.7c-0.1-4-4.5-6.1-9.3-6.1h-4.4
		c-6.5,0-9.3,3.6-9.3,9.4v1.4c0,9,14.3,9.7,14.3,15.5v1.9c0,1.1-0.9,1.9-2.2,1.9c-1.3,0-1.6-0.3-1.6-1.4v-5.6h-9.9v6.1
		c0,4.4,5.6,7.1,11,7.1h3.3c5.7,0,9.3-3,9.3-8v-5.2c0-7.5-14.3-9-14.3-14.1v-1.4c0-0.9,1-1.9,1.6-1.9
		C-1655.1,1151.8-1655.7,1152-1655,1152.7z M-1684.1,1181.4v-14.1l3.3-0.5l0,14.6h10.4v-34.8h-10.4v12.7h-3.3v-12.7h-10.4v34.8
		H-1684.1z M-1720.3,1160.7v14.1c0,4.6,4.4,7.5,9.9,7.5c7.6,0,13.2-2.1,13.2-8.5v-13.2c0-4-4-8-8.2-8h-7.1
		C-1716.7,1152.7-1720.3,1156.9-1720.3,1160.7z M-1710.5,1159.3c0-1.3,0.8-1.4,1.6-1.9c1.1,0.7,1.6,1.1,1.6,2.8v15.1
		c0,1.3-0.8,1.4-1.6,1.9c-0.9-0.5-1.6-0.6-1.6-1.9V1159.3z M-1734.1,1166.3l1.1,1.4l0.5,13.6h9.3v-14.1c-0.6-2-1.6-3.1-4.4-3.3v-0.9
		c4.1-0.1,4.9-3.1,4.9-6.6v-0.5c0-4.3-2.1-8.6-6.6-8.9h-17v34.3h9.9v-15.5L-1734.1,1166.3z M-1735.7,1152.7l2.7,0.5l0,5.6
		c0,1.6-1,1.4-2.7,1.4V1152.7z M-1716.5,1119.3c1,3.6,9.2,8.7,12.7,10.7c6,3.4,10.5,4.8,20.2,4.8l7.7,0.1l7.1-0.6
		c-1-0.5-7.4-2-10.1-3.1c-3.1-1.3-6-3.2-8.5-5c-5.5-3.9-7.6-8.8-17.7-8.8h-1.6C-1712.1,1117.4-1713.3,1119.1-1716.5,1119.3z
		 M-1728.6,1120.7c-1.2,0.9-3.8,2.1-3.8,3.8c0,0.6,1.1,1.1,1.7,1.5l3.8-2.4c5-2.9,12.2-7.1,20.3-7.1h3.3c15.4,0,17.2,16.5,41.7,16.5
		c-0.9-1-9-3-11.1-4.1c-4.4-2.4-5.5-3.3-9.1-6.3c-5.2-4.5-11.3-9.8-21.5-9.8C-1712.4,1112.7-1723,1117.5-1728.6,1120.7z"/>
</g>
<g>
	<path class="st9" d="M-2038.9,2344.6l0.8-1.1l-1.4,0.5c-1.2,0.7-6.1,5.2-8.2,6.7c-2.5,1.8-6.5,4.2-9.6,5.5
		c-6.4,2.7-15.7,6.1-24.9,6.1h-9.3c-29.6,0-57.3-25.3-57.3-51.4v-5.1c0-9,5.9-20.3,10.4-25.9c7.9-10,11.7-10,20.9-16.9l4.1-1.1
		l0.5-6.9l-4.6,2.9c-0.7-0.4-2.1-1-2.1-1.8c0-2,3.2-3.4,4.7-4.6c-2.3-0.5-2.2-1.1-4.7-1.1h-0.7c-1.6,0-2.4,1-3.3,1.7
		c-8.6,4.9-17,12.9-23.4,19.9c-4.6,4.9-13.2,20.4-13.2,28.7v13.1c0,30.9,33.4,52.5,70.6,52.5
		C-2068.9,2366.3-2047,2355-2038.9,2344.6 M-2114.2,2331.5l0.8,1.1l1.9,0c-0.3-2.7-1.4-4-4.7-4c-2.8,0-4.7,2.8-4.7,5.1v2.9
		c0,1.7,1.3,4.6,3.3,4.6h2.7c1.6,0,3.3-1.5,3.3-2.9v-1.7c-5.6,0.4-0.2,3.4-4.7,3.4c-0.8,0-2-1.2-2-2.3v-5.1c0-1.3,1.1-2.3,2.7-2.3
		C-2114.6,2330.4-2114.5,2331-2114.2,2331.5z M-2074.8,2341.2h8v-1.7h-6v-10.3h-2V2341.2z M-2090.2,2334.9l0-1.2l1.4-1.7v9.1h2v-12
		h-4l-1.3,6.3v1.7h-1.3v-1.7l-1.5-6.2l-3.8,0v12h2v-8.6l2.8,8.5l2.6,0L-2090.2,2334.9z M-2104.2,2341.2c2.9,0,3.3-3.7,3.3-6.3v-0.6
		c0-2.3-0.7-5.1-3.3-5.1h-2.7c-2.2,0-3.3,2.1-3.3,4v4c0,1.9,1.2,4,3.3,4H-2104.2z M-2107.5,2333.2c0-1.5,0.3-1.6,0.7-2.9h2.7
		c0.3,1.3,0.7,1.3,0.7,2.9v4c0,1.5-0.3,1.6-0.7,2.9h-2.7c-0.3-1.3-0.7-1.3-0.7-2.9V2333.2z M-2034.9,2330.9l2.7-0.7l0-1.1h-8.7v1.7
		h3.3v10.3h2.7V2330.9z M-2066.2,2341.2h2.7v-12h-2.7V2341.2z M-2050.9,2341.2h2v-8l4,8l2.7,0v-12h-2v7.4h-1.3l-2.7-7.4h-2.7V2341.2
		z M-2060.2,2341.2c0-1.8-0.2-2.9,2-2.9h1.3c2.2,0,2,1,2,2.9h2.7l-3.7-11.9l-3.7-0.1l-3.3,12L-2060.2,2341.2z M-2058.1,2332.1l1.3,0
		l1.2,4.9l-3.5,0L-2058.1,2332.1z M-2084.2,2341.2h2v-5.1h2c1.8,0,1.8-0.3,3.3-0.6c0.3-1.3,0.7-1.3,0.7-2.9c0-2.5-0.8-2.6-2.7-3.4
		h-5.3V2341.2z M-2082.2,2330.9h3.3v2.3c0,1.9-1.2,1.7-3.3,1.7V2330.9z M-2025.5,2290.4l0.7,5.1l11.3,0v-5.7
		c-0.1-4.9-5.4-7.4-11.3-7.4h-5.3c-7.9,0-11.3,4.4-11.3,11.4v1.7c0,10.9,17.3,11.7,17.3,18.8v2.3c0,1.3-1.1,2.3-2.7,2.3
		c-1.5,0-2-0.4-2-1.7v-6.9h-12v7.4c0,5.3,6.8,8.6,13.3,8.6h4c6.9,0,11.3-3.6,11.3-9.7v-6.3c0-9.1-17.3-10.9-17.3-17.1v-1.7
		c0-1.1,1.2-2.3,2-2.3C-2025.7,2289.2-2026.3,2289.5-2025.5,2290.4z M-2060.9,2325.2v-17.1l4-0.6l0,17.8h12.7V2283h-12.7v15.4h-4
		V2283h-12.7v42.3H-2060.9z M-2104.8,2300.1v17.1c0,5.6,5.4,9.1,12,9.1c9.2,0,16-2.5,16-10.3v-16c0-4.8-4.9-9.7-10-9.7h-8.7
		C-2100.4,2290.4-2104.8,2295.5-2104.8,2300.1z M-2092.8,2298.4c0-1.5,1-1.7,2-2.3c1.3,0.8,2,1.3,2,3.4v18.3c0,1.5-1,1.7-2,2.3
		c-1-0.6-2-0.8-2-2.3V2298.4z M-2121.5,2306.9l1.3,1.7l0.7,16.6h11.3v-17.1c-0.7-2.4-2-3.8-5.3-4v-1.1c5-0.1,6-3.8,6-8v-0.6
		c0-5.2-2.5-10.5-8-10.8h-20.7v41.7h12v-18.8L-2121.5,2306.9z M-2123.5,2290.4l3.3,0.6l0,6.8c0,1.9-1.2,1.7-3.3,1.7V2290.4z
		 M-2100.2,2249.8c1.2,4.4,11.1,10.6,15.4,13c7.3,4.1,12.7,5.8,24.5,5.8l9.3,0.1l8.6-0.7c-1.2-0.6-9-2.4-12.2-3.8
		c-3.7-1.6-7.2-3.9-10.3-6.1c-6.6-4.8-9.2-10.7-21.5-10.7h-2C-2094.8,2247.6-2096.2,2249.6-2100.2,2249.8z M-2114.8,2251.6
		c-1.5,1.1-4.7,2.6-4.7,4.6c0,0.8,1.4,1.4,2.1,1.8l4.6-2.9c6-3.5,14.8-8.6,24.7-8.6h4c18.7,0,20.9,20,50.6,20
		c-1-1.2-10.9-3.6-13.5-5c-5.3-2.9-6.7-4-11-7.7c-6.4-5.5-13.7-11.8-26.2-11.8C-2095.2,2241.8-2108.1,2247.7-2114.8,2251.6z"/>
</g>
<g>
	<path class="st9" d="M-3832.1,1313.8l1.5-2.2l-2.8,1.1c-2.3,1.3-11.9,10.1-16,13.1c-4.9,3.6-12.7,8.1-18.7,10.7
		c-12.5,5.3-30.7,11.9-48.6,11.9h-18.2c-57.8,0-111.9-49.4-111.9-100.4v-10c0-17.6,11.5-39.6,20.3-50.7c15.5-19.5,22.8-19.5,40.9-33
		l8.1-2.2l1.1-13.4l-9,5.7c-1.3-0.8-4.1-2-4.1-3.5c0-3.9,6.2-6.7,9.1-8.9c-4.5-0.9-4.4-2.2-9.1-2.2h-1.3c-3.2,0-4.8,2-6.5,3.3
		c-16.8,9.6-33.1,25.2-45.8,38.8c-9,9.7-25.8,39.9-25.8,56v25.6c0,60.4,65.1,102.6,137.9,102.6
		C-3890.8,1356.2-3848,1334.2-3832.1,1313.8 M-3979.2,1288.2l1.5,2.2l3.7,0.1c-0.5-5.2-2.7-7.8-9.1-7.8c-5.5,0-9.1,5.4-9.1,10v5.6
		c0,3.4,2.4,8.9,6.5,8.9h5.2c3,0,6.5-3,6.5-5.6v-3.3c-10.9,0.8-0.5,6.7-9.1,6.7c-1.6,0-3.9-2.3-3.9-4.5v-10c0-2.6,2.2-4.5,5.2-4.5
		C-3980,1286-3979.8,1287.2-3979.2,1288.2z M-3902.4,1307.1h15.6v-3.3h-11.7v-20.1h-3.9V1307.1z M-3932.3,1294.9l-0.1-2.3l2.7-3.3
		v17.8h3.9v-23.4h-7.8l-2.6,12.3v3.3h-2.6v-3.3l-3-12.2l-7.4-0.1v23.4h3.9v-16.7l5.4,16.7l5,0L-3932.3,1294.9z M-3959.7,1307.1
		c5.7,0,6.5-7.2,6.5-12.3v-1.1c0-4.5-1.4-10-6.5-10h-5.2c-4.2,0-6.5,4-6.5,7.8v7.8c0,3.8,2.3,7.8,6.5,7.8H-3959.7z M-3966.2,1291.5
		c0-3,0.6-3.1,1.3-5.6h5.2c0.7,2.5,1.3,2.6,1.3,5.6v7.8c0,3-0.6,3.1-1.3,5.6h-5.2c-0.7-2.5-1.3-2.6-1.3-5.6V1291.5z M-3824.3,1287.1
		l5.2-1.3l0-2.1h-16.9v3.3h6.5v20.1h5.2V1287.1z M-3885.5,1307.1h5.2v-23.4h-5.2V1307.1z M-3855.6,1307.1h3.9v-15.6l7.8,15.6l5.2,0
		v-23.4h-3.9v14.5h-2.6l-5.2-14.5h-5.2V1307.1z M-3873.8,1307.1c0-3.6-0.4-5.6,3.9-5.6h2.6c4.3,0,3.8,2,3.9,5.6h5.2l-7.2-23.3
		l-7.1-0.2l-6.4,23.4L-3873.8,1307.1z M-3869.7,1289.3l2.4,0l2.3,9.6l-6.9,0L-3869.7,1289.3z M-3920.6,1307.1h3.9v-10h3.9
		c3.5,0,3.6-0.5,6.5-1.1c0.7-2.5,1.3-2.6,1.3-5.6c0-4.9-1.6-5-5.2-6.7h-10.4V1307.1z M-3916.7,1287.1h6.5v4.5c0,3.7-2.3,3.3-6.5,3.3
		V1287.1z M-3806.1,1207.9l1.4,10l22,0v-11.2c-0.2-9.6-10.6-14.5-22.1-14.5h-10.4c-15.5,0-22.1,8.6-22.1,22.3v3.3
		c0,21.4,33.8,22.9,33.8,36.8v4.5c0,2.6-2.2,4.5-5.2,4.5c-3,0-3.9-0.8-3.9-3.3v-13.4h-23.4v14.5c0,10.3,13.3,16.7,26,16.7h7.8
		c13.5,0,22.1-7,22.1-19v-12.3c0-17.8-33.8-21.3-33.8-33.5v-3.3c0-2.2,2.3-4.5,3.9-4.5C-3806.3,1205.7-3807.6,1206.1-3806.1,1207.9z
		 M-3875.1,1275.9v-33.5l7.8-1.3l0,34.7h24.7v-82.5h-24.7v30.1h-7.8v-30.1h-24.7v82.5H-3875.1z M-3961,1226.8v33.5
		c0,11,10.5,17.8,23.4,17.8c18,0,31.2-4.9,31.2-20.1v-31.2c0-9.4-9.5-19-19.5-19h-16.9C-3952.4,1207.9-3961,1217.9-3961,1226.8z
		 M-3937.5,1223.5c0-3,1.9-3.3,3.9-4.5c2.6,1.7,3.9,2.6,3.9,6.7v35.7c0,3-1.9,3.3-3.9,4.5c-2-1.2-3.9-1.5-3.9-4.5V1223.5z
		 M-3993.5,1240.2l2.6,3.3l1.3,32.3h22.1v-33.5c-1.5-4.7-3.9-7.3-10.4-7.8v-2.2c9.7-0.2,11.7-7.3,11.7-15.6v-1.1
		c0-10.1-4.9-20.4-15.6-21.2h-40.3v81.4h23.4v-36.8L-3993.5,1240.2z M-3997.4,1207.9l6.5,1.1l0,13.4c0,3.7-2.3,3.3-6.5,3.3V1207.9z
		 M-3951.8,1128.7c2.3,8.5,21.7,20.7,30.2,25.4c14.3,8,24.8,11.4,47.9,11.4l18.2,0.3l16.9-1.4c-2.3-1.2-17.7-4.8-23.9-7.4
		c-7.2-3.1-14.1-7.6-20-11.8c-13-9.3-18-20.9-42-20.9h-3.9C-3941.3,1124.2-3944.2,1128.2-3951.8,1128.7z M-3980.5,1132
		c-2.9,2.2-9.1,5-9.1,8.9c0,1.5,2.7,2.7,4.1,3.5l9-5.7c11.8-6.8,29-16.7,48.1-16.7h7.8c36.5,0,40.8,39,98.9,39
		c-2-2.4-21.3-7.1-26.3-9.8c-10.4-5.6-13.1-7.8-21.5-15c-12.4-10.6-26.8-23.1-51.1-23.1C-3942.1,1113.1-3967.3,1124.5-3980.5,1132z"
		/>
</g>
<g>
	<path class="st9" d="M-1433.6,1199.7c1.3,0,2.2-0.4,2.7-1.1c0.5-0.7,0.8-2,0.8-3.9v-11.4c0-1.2-0.3-2.2-0.9-2.8
		c-0.6-0.6-1.4-1-2.6-1c-1.1,0-2,0.3-2.6,1c-0.6,0.6-0.9,1.6-0.9,2.8v11.4c0,1.9,0.2,3.2,0.8,3.9
		C-1435.8,1199.3-1434.9,1199.7-1433.6,1199.7 M-1433.6,1203.8c-3.7,0-6.3-0.7-7.8-2.1c-1.5-1.4-2.3-3.8-2.3-7.3V1183
		c0-2.6,0.8-4.5,2.5-5.8c1.7-1.3,4.2-1.9,7.5-1.9c3.4,0,5.9,0.6,7.5,1.9c1.7,1.3,2.5,3.2,2.5,5.8v11.4c0,3.4-0.8,5.9-2.3,7.3
		C-1427.3,1203.1-1429.9,1203.8-1433.6,1203.8z M-1448.5,1194v0.8c0.1,3.2-0.6,5.5-2.1,6.9c-1.5,1.4-3.9,2.1-7.4,2.1
		c-3.7,0-6.3-0.7-7.8-2.2c-1.5-1.5-2.3-4.1-2.3-7.7v-8.5c0-3.7,0.8-6.3,2.3-7.7c1.5-1.5,4.1-2.2,7.8-2.2c3.2,0,5.6,0.7,7.2,2.1
		c1.5,1.3,2.2,3.2,2.2,5.8v0.5v0.8h-6.6v-0.8c0-1.4-0.2-2.5-0.6-3.2c-0.5-0.7-1.2-1.1-2.1-1.1c-1.2,0-2.1,0.4-2.7,1.2
		c-0.5,0.8-0.8,2.1-0.8,4v8.5c0,2.4,0.3,4.1,0.8,5c0.5,0.9,1.4,1.4,2.7,1.4c1,0,1.8-0.4,2.3-1.2c0.5-0.8,0.7-2,0.7-3.6v-0.8H-1448.5
		z M-1493.4,1203.4v-27.6h3.3h3.3v11.4h6.3v-11.4h3.3h3.3v27.6h-3.3h-3.3v-12.1h-6.3v12.1h-3.3H-1493.4z M-1505.9,1184.3v-0.8
		c0-1.5-0.2-2.5-0.6-3.1c-0.5-0.6-1.3-0.9-2.4-0.9c-1.1,0-2,0.3-2.5,0.8c-0.6,0.6-0.8,1.4-0.8,2.5c0,0.9,0.3,1.6,1,2.2
		c0.7,0.6,1.8,1.3,3.5,1.9c3.3,1.3,5.6,2.6,6.9,3.9c1.3,1.3,2,2.8,2,4.7c0,2.8-0.8,4.8-2.5,6.2c-1.7,1.4-4.2,2.1-7.6,2.1
		c-3.7,0-6.3-0.6-7.8-1.9c-1.5-1.2-2.3-3.2-2.3-6v-0.3v-0.8h6.5v0.8c0,1.3,0.3,2.3,0.9,3c0.6,0.7,1.5,1,2.7,1c1.2,0,2.1-0.3,2.7-0.9
		c0.6-0.6,0.9-1.5,0.9-2.7c0-0.9-0.4-1.7-1.1-2.3c-0.7-0.7-2-1.3-3.8-2.1c-3.1-1.3-5.3-2.5-6.6-3.7c-1.3-1.2-1.9-2.7-1.9-4.5
		c0-2.7,0.8-4.7,2.5-6c1.7-1.3,4.2-2,7.6-2c3.5,0,5.9,0.6,7.4,1.9c1.3,1.2,2,3.1,2,5.7l0,0.6v0.8H-1505.9z M-1534.4,1180.9
		l-2.7,12.4h5.3L-1534.4,1180.9L-1534.4,1180.9z M-1545.7,1203.4l7.3-27.6h3.9h3.9l7.3,27.6h-3.2h-3.2l-1.3-6h-7l-1.3,6h-3.2
		H-1545.7z M-1545.7,1210.4h122.1v4.9h-122.1V1210.4z M-1535.4,1159c15.1-14.7,30.2-29.3,45.3-44c3.1-3,8.2-3,11.3,0
		c15.1,14.7,30.2,29.3,45.3,44c7.2,8.3-8.6,11.3-13.5,5.4c-14-13.6-28-27.2-42-40.7c-0.9-0.8-2.3-0.8-3.1,0c-1,1-2.1,2-3.1,3
		c-0.9,0.8-0.9,2.2,0,3l29.4,28.5c8.7,10.9-8.7,8.9-12.7,5.9c-8.7-8.4-17.3-16.8-26-25.3c-0.9-0.8-2.3-0.8-3.1,0c-1,1-2.1,2-3.1,3
		c-0.9,0.8-0.9,2.2,0,3c5.3,5.1,10.5,10.2,15.8,15.3c9,11.7-12.8,7.8-13.8,4.8c-3.8-3.7-7.5-7.3-11.3-11c-0.9-0.8-2.3-0.8-3.1,0
		c-1,1-2.1,2-3.1,3c-0.9,0.8-0.9,2.2,0,3c1.6,1.5,3.3,2.9,4.7,4.6c5.1,6.1-11.4,3.6-15,3.6
		C-1538.4,1165.3-1537.9,1161.5-1535.4,1159z"/>
</g>
<g>
	<path class="st9" d="M-2024.3,2755.6c1.6,0,2.6-0.4,3.2-1.3c0.6-0.9,0.9-2.5,0.9-4.7v-13.7c0-1.5-0.4-2.6-1.1-3.4
		c-0.7-0.8-1.7-1.2-3.1-1.2c-1.4,0-2.4,0.4-3.1,1.2c-0.7,0.8-1,1.9-1,3.4v13.7c0,2.2,0.3,3.8,0.9,4.7
		C-2026.9,2755.1-2025.9,2755.6-2024.3,2755.6 M-2024.3,2760.6c-4.4,0-7.5-0.8-9.4-2.5c-1.8-1.7-2.7-4.6-2.7-8.8v-13.7
		c0-3.1,1-5.4,3-7c2-1.5,5-2.3,9.1-2.3c4,0,7.1,0.8,9.1,2.3c2,1.5,3,3.9,3,7v13.7c0,4.1-0.9,7.1-2.7,8.8
		C-2016.8,2759.7-2019.9,2760.6-2024.3,2760.6z M-2042.2,2748.7v1c0.1,3.9-0.8,6.7-2.5,8.3c-1.8,1.7-4.7,2.5-8.9,2.5
		c-4.5,0-7.6-0.9-9.4-2.7c-1.8-1.8-2.7-4.9-2.7-9.3v-10.3c0-4.4,0.9-7.5,2.7-9.3c1.8-1.8,5-2.7,9.4-2.7c3.9,0,6.8,0.8,8.6,2.5
		c1.8,1.6,2.6,3.9,2.6,7v0.6v1h-7.9v-1c0-1.7-0.2-3-0.8-3.9c-0.6-0.9-1.4-1.3-2.5-1.3c-1.5,0-2.6,0.5-3.2,1.5c-0.7,1-1,2.6-1,4.8
		v10.3c0,2.9,0.3,4.9,0.9,6c0.6,1.1,1.7,1.7,3.3,1.7c1.2,0,2.1-0.5,2.7-1.4c0.6-1,0.9-2.4,0.8-4.4v-1H-2042.2z M-2096.4,2760.1
		v-33.3h4h4v13.8h7.6v-13.8h4h4v33.3h-4h-4v-14.6h-7.6v14.6h-4H-2096.4z M-2111.5,2737.1v-1c0-1.8-0.2-3-0.8-3.7
		c-0.6-0.7-1.5-1.1-2.9-1.1c-1.4,0-2.4,0.3-3.1,1c-0.7,0.7-1,1.7-1,3c0,1,0.4,1.9,1.2,2.7c0.8,0.7,2.2,1.5,4.2,2.3
		c3.9,1.6,6.7,3.2,8.3,4.7c1.6,1.5,2.4,3.4,2.4,5.6c0,3.3-1,5.8-3,7.5c-2,1.7-5.1,2.5-9.1,2.5c-4.4,0-7.6-0.7-9.4-2.2
		c-1.8-1.5-2.8-3.9-2.8-7.3v-0.3v-1h7.8v1c0,1.6,0.3,2.8,1,3.6c0.7,0.8,1.8,1.2,3.3,1.2c1.4,0,2.5-0.4,3.2-1.1
		c0.7-0.7,1.1-1.8,1.1-3.3c0-1.1-0.4-2-1.3-2.8c-0.9-0.8-2.4-1.6-4.5-2.5c-3.8-1.5-6.4-3-7.9-4.5c-1.5-1.5-2.3-3.3-2.3-5.5
		c0-3.2,1-5.6,3-7.2c2-1.6,5.1-2.4,9.1-2.4c4.2,0,7.1,0.7,8.9,2.2c1.6,1.4,2.4,3.7,2.4,6.8l0,0.7v1H-2111.5z M-2145.8,2733
		l-3.2,14.9h6.4L-2145.8,2733L-2145.8,2733z M-2159.3,2760.1l8.8-33.3h4.7h4.7l8.8,33.3h-3.8h-3.9l-1.5-7.2h-8.4l-1.6,7.2h-3.8
		H-2159.3z M-2159.3,2768.5h147.1v5.9h-147.1V2768.5z M-2146.9,2706.6c18.2-17.7,36.4-35.3,54.6-53c3.8-3.6,9.9-3.6,13.7,0
		c18.2,17.7,36.4,35.3,54.6,53c8.7,10-10.4,13.6-16.3,6.5c-16.8-16.4-33.7-32.7-50.5-49.1c-1-1-2.7-1-3.8,0
		c-1.3,1.2-2.5,2.4-3.8,3.7c-1,1-1,2.7,0,3.7l35.4,34.4c10.5,13.1-10.4,10.8-15.3,7.1c-10.4-10.1-20.9-20.3-31.3-30.4
		c-1-1-2.7-1-3.8,0c-1.3,1.2-2.5,2.4-3.8,3.7c-1,1-1,2.6,0,3.7c6.3,6.1,12.7,12.3,19,18.4c10.8,14.1-15.4,9.4-16.7,5.8
		c-4.5-4.4-9.1-8.8-13.6-13.2c-1-1-2.7-1-3.8,0c-1.3,1.2-2.5,2.4-3.8,3.7c-1,1-1,2.7,0,3.7c1.9,1.8,4,3.5,5.7,5.5
		c6.2,7.4-13.7,4.3-18.1,4.3C-2150.6,2714.2-2150,2709.6-2146.9,2706.6z"/>
</g>
<g>
	<path class="st9" d="M-3438.4,1021.1c3,0,5.1-0.9,6.3-2.6c1.2-1.7,1.8-4.8,1.8-9.2v-26.8c0-2.9-0.7-5.1-2.1-6.6
		c-1.4-1.5-3.4-2.3-6-2.3c-2.6,0-4.7,0.8-6,2.3c-1.4,1.5-2,3.7-2,6.6v26.8c0,4.4,0.6,7.4,1.8,9.2
		C-3443.5,1020.2-3441.4,1021.1-3438.4,1021.1 M-3438.4,1030.8c-8.6,0-14.7-1.7-18.3-5c-3.5-3.3-5.3-9-5.3-17.1V982
		c0-6.1,2-10.6,5.9-13.6c3.9-3,9.8-4.5,17.7-4.5c7.9,0,13.8,1.5,17.7,4.5c3.9,3,5.9,7.5,5.9,13.6v26.7c0,8.1-1.8,13.8-5.3,17.1
		C-3423.6,1029.2-3429.7,1030.8-3438.4,1030.8z M-3473.2,1007.8v1.9c0.1,7.6-1.5,13-4.9,16.3c-3.4,3.2-9.3,4.9-17.5,4.9
		c-8.7,0-14.8-1.8-18.4-5.3c-3.6-3.5-5.3-9.6-5.3-18.1v-20c0-8.6,1.8-14.7,5.3-18.2c3.6-3.5,9.7-5.3,18.4-5.3
		c7.6,0,13.2,1.6,16.8,4.9c3.4,3.1,5.1,7.6,5.1,13.7v1.2v1.9h-15.4v-1.9c0.1-3.4-0.4-5.9-1.5-7.6c-1.1-1.7-2.8-2.5-5-2.5
		c-2.9,0-5,1-6.3,2.9c-1.3,1.9-1.9,5-1.9,9.4v20c0,5.6,0.6,9.6,1.8,11.8c1.2,2.2,3.3,3.3,6.4,3.3c2.4,0,4.2-0.9,5.3-2.8
		c1.1-1.9,1.7-4.7,1.6-8.5v-1.9H-3473.2z M-3578.9,1029.9v-65h7.7h7.8v26.8h14.8v-26.8h7.7h7.8v65h-7.7h-7.8v-28.5h-14.8v28.5h-7.7
		H-3578.9z M-3608.4,985v-1.9c0.1-3.4-0.4-5.9-1.5-7.3c-1.1-1.4-3-2.1-5.6-2.1c-2.6,0-4.6,0.7-6,2c-1.3,1.3-2,3.3-2,5.9
		c0,2,0.8,3.8,2.4,5.2c1.5,1.4,4.3,2.9,8.2,4.5c7.7,3.1,13.1,6.2,16.1,9.2c3.1,3,4.6,6.6,4.6,10.9c0,6.5-2,11.4-5.9,14.6
		c-3.9,3.2-9.9,4.9-17.8,4.9c-8.7,0-14.8-1.4-18.4-4.4c-3.6-2.9-5.4-7.6-5.4-14.2v-0.6v-1.9h15.3v1.9c-0.1,3.1,0.6,5.5,2,7.1
		c1.4,1.6,3.6,2.3,6.5,2.3c2.8,0,4.9-0.7,6.3-2.1c1.4-1.4,2.1-3.6,2.1-6.4c0-2.1-0.8-3.9-2.5-5.5c-1.7-1.5-4.6-3.2-8.9-4.9
		c-7.4-3-12.5-5.9-15.5-8.8c-3-2.9-4.4-6.4-4.4-10.6c0-6.3,2-11,5.9-14.1c3.9-3.1,9.9-4.7,17.8-4.7c8.2,0,13.9,1.5,17.3,4.4
		c3.2,2.8,4.7,7.2,4.7,13.3l0,1.4v1.9H-3608.4z M-3675.4,977l-6.3,29.1h12.4L-3675.4,977L-3675.4,977z M-3701.8,1029.9l17.2-65h9.1
		h9.1l17.1,65h-7.5h-7.5l-3-14h-16.5l-3.1,14h-7.5H-3701.8z M-3701.8,1046.3h287.1v11.5h-287.1V1046.3z M-3677.5,925.5
		c35.5-34.5,71-68.9,106.5-103.4c7.3-7.1,19.3-7.1,26.6,0c35.5,34.5,71,68.9,106.5,103.4c17,19.5-20.3,26.4-31.8,12.8
		c-32.9-31.9-65.7-63.8-98.6-95.8c-2-2-5.3-2-7.3,0c-2.4,2.4-4.9,4.8-7.4,7.1c-2,2-2,5.2,0,7.1l69,67c20.5,25.6-20.3,21-29.9,13.8
		c-20.4-19.8-40.8-39.6-61.1-59.4c-2-2-5.3-2-7.3,0c-2.4,2.4-4.9,4.8-7.3,7.1c-2,2-2,5.2,0,7.1c12.3,12,24.7,24,37,36
		c21.1,27.6-30.1,18.4-32.5,11.3c-8.9-8.6-17.7-17.2-26.6-25.8c-2-2-5.3-2-7.3,0c-2.5,2.4-4.9,4.8-7.3,7.1c-2,2-2,5.2,0,7.1
		c3.7,3.6,7.8,6.8,11.1,10.8c12.1,14.4-26.8,8.4-35.3,8.4C-3684.6,940.3-3683.6,931.4-3677.5,925.5z"/>
</g>
<g>
	<path class="st9" d="M-1271.2,1205.4h-42.5v-32.8h42.5c1.3,0,2.5,0.1,3.6,0.3c1.1,0.2,2,0.5,2.7,0.9c0.8,0.5,1.4,1,1.8,1.7
		c0.4,0.7,0.6,1.5,0.6,2.4v22.1c0,0.9-0.2,1.7-0.6,2.4c-0.4,0.7-1,1.3-1.8,1.7c-0.7,0.4-1.6,0.7-2.7,0.9
		C-1268.7,1205.3-1269.9,1205.4-1271.2,1205.4 M-1311.4,1203.1h40.2c1.2,0,2.3-0.1,3.1-0.2c0.8-0.1,1.5-0.4,1.9-0.6
		c0.4-0.2,0.7-0.5,0.9-0.9c0.2-0.3,0.3-0.8,0.3-1.3V1178c0-0.5-0.1-0.9-0.3-1.3c-0.2-0.3-0.5-0.6-0.9-0.9c-0.5-0.3-1.1-0.5-1.9-0.7
		c-0.9-0.2-1.9-0.2-3.1-0.2h-40.2V1203.1z M-1322.9,1165.1v47.9h51.6c1.8,0,3.4-0.1,4.8-0.2c1.4-0.1,2.8-0.4,4-0.6
		c1.2-0.3,2.2-0.6,3.2-1c0.9-0.4,1.7-0.9,2.4-1.4c0.7-0.5,1.2-1.1,1.7-1.7c0.5-0.6,0.9-1.3,1.2-2.1c0.3-0.8,0.5-1.6,0.7-2.5
		c0.2-0.9,0.2-1.9,0.2-2.9v-22.9c0-1-0.1-2-0.2-2.9c-0.2-0.9-0.4-1.7-0.7-2.5c-0.3-0.8-0.7-1.4-1.2-2.1c-0.5-0.6-1.1-1.2-1.7-1.7
		c-0.7-0.5-1.5-1-2.4-1.4c-0.9-0.4-2-0.7-3.2-1c-1.2-0.3-2.5-0.5-4-0.6c-1.4-0.1-3-0.2-4.8-0.2H-1322.9z M-1325.2,1214.1v-51.3h53.9
		c1.8,0,3.5,0.1,5,0.2c1.6,0.2,3,0.4,4.3,0.7c1.3,0.3,2.5,0.7,3.6,1.2c1.1,0.5,2,1,2.9,1.7c0.8,0.6,1.6,1.4,2.2,2.1
		c0.6,0.8,1.1,1.7,1.5,2.6c0.4,0.9,0.7,1.9,0.8,3c0.2,1,0.3,2.2,0.3,3.3v22.9c0,1.2-0.1,2.3-0.3,3.3c-0.2,1.1-0.5,2.1-0.8,3
		c-0.4,0.9-0.9,1.8-1.5,2.6c-0.6,0.8-1.3,1.5-2.2,2.2c-0.8,0.6-1.8,1.2-2.9,1.7c-1.1,0.5-2.2,0.9-3.5,1.2c-1.3,0.3-2.7,0.5-4.3,0.7
		c-1.6,0.2-3.2,0.2-5,0.2h-53.9V1214.1z M-1191.6,1190.1h-50.4v-9.1c0-0.7,0-1.3,0.1-1.9c0.1-0.6,0.3-1.2,0.4-1.7
		c0.2-0.6,0.5-1.1,0.9-1.5c0.4-0.5,0.8-0.9,1.3-1.2c0.5-0.4,1.1-0.7,1.8-0.9c0.6-0.2,1.3-0.5,2.1-0.6c0.8-0.2,1.6-0.3,2.6-0.4
		c0.9-0.1,2-0.1,3.1-0.1h26.9c1.1,0,2.1,0,3.1,0.1c0.9,0.1,1.8,0.2,2.6,0.4c0.8,0.2,1.5,0.4,2.1,0.6c0.7,0.3,1.2,0.6,1.8,0.9
		c0.5,0.4,1,0.8,1.3,1.2c0.4,0.5,0.7,1,0.9,1.5c0.2,0.5,0.4,1.1,0.5,1.7c0.1,0.6,0.1,1.2,0.1,1.9v9.1H-1191.6z M-1239.7,1187.8h46.9
		v-6.8c0-0.6,0-1.1-0.1-1.5c-0.1-0.4-0.2-0.9-0.3-1.2c-0.1-0.3-0.3-0.6-0.5-0.9c-0.2-0.3-0.5-0.6-0.9-0.8c-0.3-0.2-0.8-0.5-1.3-0.7
		c-0.5-0.2-1.1-0.4-1.7-0.5c-0.7-0.1-1.4-0.2-2.3-0.3c-0.9-0.1-1.8-0.1-2.9-0.1h-26.9c-1.1,0-2,0-2.9,0.1c-0.9,0.1-1.6,0.2-2.3,0.3
		c-0.6,0.1-1.2,0.3-1.7,0.5c-0.5,0.2-0.9,0.4-1.3,0.7c-0.3,0.2-0.6,0.5-0.9,0.8c-0.2,0.3-0.4,0.6-0.5,0.9c-0.1,0.4-0.3,0.8-0.3,1.2
		c-0.1,0.5-0.1,1-0.1,1.5V1187.8z M-1251.2,1181v32h9.2v-16h51.5v16h9.2v-32c0-2.6-0.4-4.8-1.3-6.8c-0.9-1.9-2.1-3.6-3.8-4.9
		c-1.7-1.4-3.9-2.4-6.6-3.1c-2.7-0.7-6-1.1-9.7-1.1h-27c-3.7,0-6.9,0.4-9.7,1.1c-2.7,0.7-4.9,1.7-6.6,3.1c-1.7,1.3-3,3-3.8,4.9
		C-1250.7,1176.1-1251.2,1178.4-1251.2,1181z M-1253.5,1214.1V1181c0-2.9,0.5-5.5,1.5-7.7c1-2.3,2.5-4.2,4.5-5.8
		c2-1.6,4.5-2.7,7.5-3.5c2.9-0.8,6.4-1.1,10.2-1.1h27c3.9,0,7.3,0.4,10.2,1.1c3,0.8,5.5,2,7.5,3.5c2,1.6,3.5,3.5,4.5,5.8
		c1,2.3,1.5,4.8,1.5,7.7v34.3h-13.8v-16h-46.9v16h-13.8V1214.1z M-1240.8,1188.9h49.2v-7.9c0-1.2-0.2-2.3-0.5-3.2
		c-0.3-0.9-1-1.6-1.8-2.2c-0.9-0.6-2-1.1-3.4-1.4c-1.4-0.3-3.2-0.4-5.4-0.4h-26.9c-2.2,0-4,0.1-5.4,0.4c-1.4,0.3-2.6,0.7-3.4,1.4
		c-0.9,0.6-1.5,1.4-1.8,2.2c-0.3,0.9-0.5,1.9-0.5,3.2V1188.9z M-1252.3,1214.1V1181c0-5.5,1.9-9.7,5.6-12.6c3.7-2.9,9.4-4.4,17-4.4
		h27c7.6,0,13.3,1.5,17,4.4c3.7,2.9,5.6,7.2,5.6,12.6v33.1h-11.5v-16h-49.2v16H-1252.3z M-1199.3,1138.5h-42.6v-15.9h42.6
		c1.3,0,2.5,0.1,3.6,0.3c1.1,0.2,2,0.5,2.7,0.9c0.8,0.5,1.4,1,1.8,1.7c0.4,0.7,0.6,1.5,0.6,2.4v5.2c0,0.9-0.2,1.7-0.6,2.4
		c-0.4,0.7-1,1.3-1.8,1.7c-0.7,0.4-1.6,0.7-2.7,0.9C-1196.7,1138.4-1197.9,1138.5-1199.3,1138.5z M-1239.5,1136.1h40.3
		c1.2,0,2.3-0.1,3.1-0.2c0.8-0.1,1.4-0.4,1.9-0.6c0.4-0.2,0.7-0.5,0.9-0.9c0.2-0.3,0.3-0.8,0.3-1.3v-5.2c0-0.5-0.1-0.9-0.3-1.3
		c-0.2-0.3-0.5-0.6-0.9-0.9c-0.5-0.3-1.1-0.5-1.9-0.7c-0.9-0.2-1.9-0.2-3.1-0.2h-40.3V1136.1z M-1251,1115v47.9h9.2V1145h15.3
		l0.6,0.2l27.4,17.7h16.1l-26.4-15.8l0.6-2.2h8.9c1.8,0,3.4-0.1,4.8-0.2c1.4-0.1,2.8-0.4,4-0.6c1.2-0.3,2.2-0.6,3.2-1
		c0.9-0.4,1.7-0.9,2.4-1.4c0.7-0.5,1.3-1.1,1.7-1.7c0.5-0.6,0.9-1.3,1.2-2.1c0.3-0.8,0.5-1.6,0.7-2.5c0.2-0.9,0.2-1.9,0.2-2.9v-5
		c0-1-0.1-2-0.2-2.9c-0.2-0.9-0.4-1.7-0.7-2.5c-0.3-0.7-0.7-1.4-1.2-2.1c-0.5-0.6-1.1-1.2-1.7-1.7c-0.7-0.5-1.5-1-2.4-1.4
		c-0.9-0.4-2-0.8-3.2-1c-1.2-0.3-2.5-0.5-4-0.6c-1.4-0.1-3-0.2-4.8-0.2H-1251z M-1253.3,1164.1v-51.3h54c1.8,0,3.4,0.1,5,0.2
		c1.6,0.2,3,0.4,4.3,0.7c1.3,0.3,2.5,0.7,3.6,1.2c1.1,0.5,2,1,2.9,1.7c0.8,0.6,1.6,1.4,2.2,2.2c0.6,0.8,1.1,1.7,1.5,2.6
		c0.4,0.9,0.7,1.9,0.8,3c0.2,1,0.3,2.2,0.3,3.3v5c0,1.2-0.1,2.3-0.3,3.3c-0.2,1-0.5,2-0.8,3c-0.4,0.9-0.9,1.8-1.5,2.6
		c-0.6,0.8-1.3,1.5-2.2,2.2c-0.8,0.6-1.8,1.2-2.9,1.7c-1.1,0.5-2.2,0.8-3.5,1.2c-1.3,0.3-2.7,0.5-4.3,0.7c-1.6,0.2-3.2,0.2-5,0.2
		h-4.7l26.3,15.8l-0.6,2.2h-20.6l-0.6-0.2l-27.4-17.7h-12.6v17.9h-13.8V1164.1z M-1322.9,1115v47.9h69.9v-7.5h-60.7v-17.1h49.5v-6.8
		h-49.5v-8.9h60.5v-7.5H-1322.9z M-1325.2,1164.1v-51.3h74.3v12.2h-60.5v4.3h49.5v11.5h-49.5v12.4h60.7v12.2h-74.5V1164.1z
		 M-1324.1,1164.1v-50.2h72v9.8h-60.5v6.6h49.5v9.2h-49.5v14.7h60.7v9.8H-1324.1z"/>
</g>
<g>
	<path class="st9" d="M-2105.5,3195.3h-42.4v-32.7h42.4c1.3,0,2.5,0.1,3.6,0.3c1.1,0.2,2,0.5,2.7,0.9c0.8,0.5,1.3,1,1.7,1.7
		c0.4,0.7,0.6,1.5,0.6,2.4v22c0,0.9-0.2,1.7-0.6,2.4c-0.4,0.7-1,1.3-1.8,1.7c-0.7,0.4-1.6,0.7-2.7,0.9
		C-2102.9,3195.2-2104.1,3195.3-2105.5,3195.3 M-2145.5,3193h40.1c1.2,0,2.3-0.1,3.1-0.2c0.8-0.1,1.4-0.4,1.9-0.6
		c0.4-0.2,0.7-0.5,0.9-0.9c0.2-0.3,0.3-0.8,0.3-1.3v-22c0-0.5-0.1-0.9-0.3-1.3c-0.2-0.3-0.5-0.6-0.9-0.9c-0.5-0.3-1.1-0.5-1.9-0.6
		c-0.9-0.2-1.9-0.2-3.1-0.2h-40.1V3193z M-2157,3155.1v47.7h51.4c1.8,0,3.4-0.1,4.8-0.2c1.4-0.1,2.8-0.4,3.9-0.6
		c1.2-0.3,2.2-0.6,3.1-1c0.9-0.4,1.7-0.9,2.4-1.4c0.7-0.5,1.2-1.1,1.7-1.7c0.5-0.6,0.9-1.3,1.2-2.1c0.3-0.8,0.5-1.6,0.7-2.5
		c0.2-0.9,0.2-1.9,0.2-2.9v-22.8c0-1-0.1-2-0.2-2.9c-0.2-0.9-0.4-1.7-0.7-2.5c-0.3-0.8-0.7-1.4-1.2-2.1c-0.5-0.6-1.1-1.2-1.7-1.7
		c-0.7-0.5-1.5-1-2.4-1.4c-0.9-0.4-2-0.7-3.1-1c-1.2-0.3-2.5-0.5-4-0.6c-1.4-0.1-3-0.2-4.8-0.2H-2157z M-2159.3,3204v-51.2h53.8
		c1.8,0,3.4,0.1,5,0.2c1.6,0.2,3,0.4,4.3,0.7c1.3,0.3,2.5,0.7,3.5,1.2c1.1,0.5,2,1,2.9,1.7c0.8,0.6,1.6,1.3,2.2,2.1
		c0.6,0.8,1.1,1.7,1.5,2.6c0.4,0.9,0.7,1.9,0.8,3c0.2,1,0.3,2.2,0.3,3.3v22.8c0,1.2-0.1,2.3-0.3,3.3c-0.2,1.1-0.5,2.1-0.8,3
		c-0.4,0.9-0.9,1.8-1.5,2.6c-0.6,0.8-1.3,1.5-2.2,2.1c-0.8,0.6-1.8,1.2-2.9,1.7c-1.1,0.5-2.2,0.8-3.5,1.2c-1.3,0.3-2.7,0.5-4.3,0.7
		c-1.6,0.2-3.2,0.2-5,0.2h-53.8V3204z M-2026.2,3180h-50.2v-9.1c0-0.7,0-1.3,0.1-1.9c0.1-0.6,0.2-1.2,0.4-1.7
		c0.2-0.6,0.5-1.1,0.9-1.5c0.4-0.5,0.8-0.9,1.3-1.2c0.5-0.4,1.1-0.7,1.8-0.9c0.6-0.2,1.3-0.5,2.1-0.6c0.8-0.2,1.6-0.3,2.6-0.4
		c0.9-0.1,2-0.1,3.1-0.1h26.8c1.1,0,2.1,0,3.1,0.1c0.9,0.1,1.8,0.2,2.6,0.4c0.8,0.2,1.5,0.4,2.1,0.6c0.7,0.3,1.2,0.6,1.8,0.9
		c0.5,0.4,1,0.8,1.3,1.2c0.4,0.5,0.7,1,0.9,1.5c0.2,0.5,0.4,1.1,0.4,1.7c0.1,0.6,0.1,1.2,0.1,1.9v9.1H-2026.2z M-2074,3177.7h46.7
		v-6.8c0-0.6,0-1.1-0.1-1.5c-0.1-0.4-0.2-0.9-0.3-1.2c-0.1-0.3-0.3-0.6-0.5-0.9c-0.2-0.3-0.5-0.6-0.9-0.8c-0.3-0.2-0.8-0.5-1.3-0.7
		c-0.5-0.2-1.1-0.4-1.7-0.5c-0.7-0.1-1.4-0.2-2.3-0.3c-0.8-0.1-1.8-0.1-2.9-0.1h-26.8c-1.1,0-2,0-2.9,0.1c-0.9,0.1-1.6,0.2-2.3,0.3
		c-0.6,0.1-1.2,0.3-1.7,0.5c-0.5,0.2-0.9,0.4-1.3,0.7c-0.3,0.2-0.6,0.5-0.9,0.8c-0.2,0.3-0.4,0.6-0.5,0.9c-0.1,0.4-0.2,0.8-0.3,1.2
		c-0.1,0.5-0.1,1-0.1,1.5V3177.7z M-2085.5,3170.9v31.9h9.1v-16h51.4v16h9.1v-31.9c0-2.6-0.4-4.8-1.3-6.8c-0.9-1.9-2.1-3.6-3.8-4.9
		c-1.7-1.4-3.9-2.4-6.6-3.1c-2.7-0.7-5.9-1.1-9.6-1.1h-26.9c-3.7,0-6.9,0.4-9.6,1.1c-2.7,0.7-4.9,1.7-6.6,3.1c-1.7,1.3-3,3-3.8,4.9
		C-2085.1,3166.1-2085.5,3168.4-2085.5,3170.9z M-2087.8,3204v-33c0-2.9,0.5-5.5,1.5-7.7c1-2.3,2.5-4.2,4.5-5.8
		c2-1.6,4.5-2.7,7.4-3.5c2.9-0.8,6.3-1.1,10.2-1.1h26.9c3.9,0,7.3,0.4,10.2,1.1c3,0.8,5.5,1.9,7.4,3.5c2,1.6,3.5,3.5,4.5,5.8
		c1,2.2,1.5,4.8,1.5,7.7v34.2h-13.8v-16h-46.7v16h-13.8V3204z M-2075.2,3178.8h49.1v-7.9c0-1.2-0.2-2.3-0.5-3.2
		c-0.3-0.9-0.9-1.6-1.8-2.2c-0.9-0.6-2-1.1-3.4-1.4c-1.4-0.3-3.2-0.4-5.4-0.4h-26.8c-2.2,0-3.9,0.1-5.4,0.4
		c-1.4,0.3-2.6,0.7-3.4,1.4c-0.9,0.6-1.5,1.4-1.8,2.2c-0.3,0.9-0.5,1.9-0.5,3.2V3178.8z M-2086.7,3204v-33c0-5.5,1.9-9.7,5.6-12.6
		c3.7-2.9,9.4-4.4,16.9-4.4h26.9c7.6,0,13.2,1.5,16.9,4.4c3.7,2.9,5.6,7.1,5.6,12.6v33h-11.5v-16h-49.1v16H-2086.7z M-2033.7,3128.6
		h-42.5v-15.9h42.5c1.3,0,2.5,0.1,3.6,0.3c1.1,0.2,2,0.5,2.7,0.9c0.8,0.5,1.4,1,1.7,1.7c0.4,0.7,0.6,1.5,0.6,2.4v5.1
		c0,0.9-0.2,1.7-0.6,2.4c-0.4,0.7-1,1.3-1.8,1.7c-0.7,0.4-1.6,0.7-2.7,0.9C-2031.2,3128.5-2032.4,3128.6-2033.7,3128.6z
		 M-2073.9,3126.2h40.2c1.2,0,2.3-0.1,3.1-0.2c0.8-0.1,1.4-0.4,1.9-0.6c0.4-0.2,0.7-0.5,0.9-0.9c0.2-0.3,0.3-0.8,0.3-1.3v-5.1
		c0-0.5-0.1-0.9-0.3-1.3c-0.2-0.3-0.5-0.6-0.9-0.9c-0.5-0.3-1.1-0.5-1.9-0.7c-0.9-0.2-1.9-0.2-3.1-0.2h-40.2V3126.2z
		 M-2085.3,3105.2v47.7h9.1V3135h15.2l0.6,0.2l27.4,17.7h16l-26.3-15.7l0.6-2.2h8.8c1.8,0,3.3-0.1,4.8-0.2c1.4-0.1,2.7-0.4,3.9-0.6
		c1.2-0.3,2.2-0.6,3.1-1c0.9-0.4,1.7-0.9,2.4-1.4c0.7-0.5,1.2-1.1,1.7-1.7c0.5-0.6,0.9-1.3,1.2-2.1c0.3-0.8,0.5-1.6,0.7-2.5
		c0.2-0.9,0.2-1.9,0.2-2.9v-4.9c0-1-0.1-2-0.2-2.9c-0.2-0.9-0.4-1.7-0.7-2.5c-0.3-0.7-0.7-1.4-1.2-2.1c-0.5-0.6-1.1-1.2-1.7-1.7
		c-0.7-0.5-1.5-1-2.4-1.4c-0.9-0.4-2-0.7-3.1-1c-1.2-0.3-2.5-0.5-4-0.6c-1.4-0.1-3-0.2-4.8-0.2H-2085.3z M-2087.7,3154.1v-51.2h53.8
		c1.8,0,3.4,0.1,5,0.2c1.6,0.2,3,0.4,4.3,0.7c1.3,0.3,2.5,0.7,3.5,1.2c1.1,0.5,2,1,2.9,1.7c0.8,0.6,1.5,1.4,2.2,2.1
		c0.6,0.8,1.1,1.7,1.5,2.6c0.4,0.9,0.7,1.9,0.8,3c0.2,1,0.3,2.2,0.3,3.3v4.9c0,1.2-0.1,2.3-0.3,3.3c-0.2,1-0.5,2-0.8,3
		c-0.4,0.9-0.9,1.8-1.5,2.6c-0.6,0.8-1.3,1.5-2.2,2.1c-0.8,0.6-1.8,1.2-2.9,1.7c-1.1,0.5-2.2,0.8-3.5,1.2c-1.3,0.3-2.7,0.5-4.3,0.7
		c-1.6,0.2-3.2,0.2-5,0.2h-4.7l26.3,15.7l-0.6,2.2h-20.5l-0.6-0.2l-27.4-17.7h-12.6v17.9h-13.8V3154.1z M-2157,3105.2v47.7h69.6
		v-7.5h-60.5v-17h49.4v-6.8h-49.4v-8.9h60.3v-7.5H-2157z M-2159.3,3154.1v-51.2h74.1v12.1h-60.3v4.2h49.4v11.5h-49.4v12.4h60.5v12.1
		h-74.3V3154.1z M-2158.2,3154.1v-50h71.8v9.8h-60.3v6.6h49.4v9.1h-49.4v14.7h60.5v9.8H-2158.2z"/>
</g>
<g>
	<path class="st9" d="M-4625.6,2127.1h-79.8v-61.6h79.8c2.5,0,4.8,0.2,6.7,0.5c2,0.4,3.7,1,5,1.7c1.4,0.8,2.5,1.9,3.3,3.3
		c0.8,1.3,1.1,2.8,1.1,4.5v41.4c0,1.7-0.4,3.2-1.1,4.5c-0.8,1.3-1.9,2.4-3.3,3.3c-1.3,0.8-3,1.4-5,1.7
		C-4620.8,2126.9-4623,2127.1-4625.6,2127.1 M-4701.1,2122.7h75.5c2.3,0,4.3-0.2,5.9-0.5c1.5-0.3,2.7-0.7,3.6-1.2
		c0.8-0.5,1.4-1,1.7-1.7c0.4-0.7,0.5-1.5,0.5-2.4v-41.4c0-0.9-0.2-1.7-0.6-2.4c-0.3-0.6-0.9-1.2-1.7-1.7c-0.9-0.5-2.1-0.9-3.6-1.2
		c-1.6-0.3-3.6-0.4-5.9-0.4h-75.5V2122.7z M-4722.6,2051.4v89.8h96.9c3.3,0,6.3-0.1,9-0.4c2.7-0.3,5.2-0.7,7.4-1.2
		c2.2-0.5,4.2-1.2,5.9-1.9c1.7-0.7,3.2-1.6,4.5-2.6c1.2-1,2.3-2,3.3-3.2c0.9-1.2,1.6-2.5,2.2-3.9c0.6-1.4,1-3,1.3-4.7
		c0.3-1.7,0.5-3.5,0.5-5.5v-43c0-2-0.2-3.8-0.5-5.5c-0.3-1.7-0.7-3.3-1.3-4.7c-0.6-1.4-1.3-2.7-2.2-3.9c-0.9-1.2-2-2.3-3.3-3.2
		c-1.3-1-2.8-1.8-4.5-2.6c-1.7-0.8-3.7-1.4-5.9-1.9c-2.3-0.5-4.8-0.9-7.5-1.2c-2.7-0.3-5.7-0.4-9-0.4H-4722.6z M-4727,2143.4V2047
		h101.2c3.3,0,6.5,0.1,9.4,0.4c3,0.3,5.6,0.7,8,1.3c2.5,0.6,4.7,1.3,6.7,2.2c2,0.9,3.8,1.9,5.4,3.1c1.6,1.2,2.9,2.5,4.1,4
		c1.2,1.5,2.1,3.1,2.8,4.9c0.7,1.7,1.2,3.6,1.6,5.6c0.3,2,0.5,4.1,0.5,6.3v43c0,2.2-0.2,4.3-0.5,6.3c-0.3,2-0.9,3.9-1.6,5.6
		c-0.7,1.8-1.7,3.4-2.8,4.9c-1.1,1.5-2.5,2.8-4.1,4c-1.5,1.2-3.4,2.2-5.4,3.1c-2,0.9-4.2,1.6-6.7,2.2c-2.4,0.6-5.1,1-8,1.3
		c-2.9,0.3-6.1,0.4-9.4,0.4H-4727V2143.4z M-4476.2,2098.3h-94.6v-17.1c0-1.2,0.1-2.4,0.3-3.6c0.2-1.1,0.5-2.2,0.8-3.2
		c0.4-1,1-2,1.7-2.9c0.7-0.9,1.5-1.6,2.5-2.3c1-0.7,2.1-1.3,3.3-1.7c1.2-0.5,2.5-0.9,4-1.2c1.4-0.3,3-0.5,4.8-0.7
		c1.8-0.1,3.7-0.2,5.8-0.2h50.4c2.1,0,4,0.1,5.8,0.2c1.7,0.1,3.4,0.4,4.8,0.7c1.5,0.3,2.8,0.7,4,1.1c1.2,0.5,2.3,1.1,3.3,1.7
		c1,0.7,1.8,1.5,2.5,2.3c0.7,0.9,1.3,1.8,1.7,2.9c0.4,1,0.7,2,0.8,3.2c0.2,1.1,0.3,2.3,0.3,3.6v17.1H-4476.2z M-4566.4,2093.9h88
		v-12.7c0-1.1-0.1-2-0.2-2.9c-0.1-0.8-0.3-1.6-0.6-2.3c-0.2-0.6-0.6-1.2-1-1.7c-0.4-0.5-1-1-1.6-1.5c-0.7-0.5-1.5-0.9-2.4-1.2
		c-1-0.4-2.1-0.7-3.3-1c-1.2-0.3-2.7-0.5-4.3-0.6c-1.6-0.1-3.4-0.2-5.4-0.2h-50.4c-2,0-3.8,0.1-5.4,0.2c-1.6,0.1-3,0.3-4.3,0.6
		c-1.2,0.2-2.3,0.6-3.3,1c-0.9,0.4-1.7,0.8-2.4,1.2c-0.7,0.5-1.2,1-1.6,1.5c-0.4,0.5-0.8,1.1-1,1.7c-0.3,0.7-0.5,1.5-0.6,2.3
		c-0.1,0.8-0.2,1.8-0.2,2.9V2093.9z M-4588,2081.2v60h17.2v-30.1h96.7v30.1h17.2v-60c0-4.8-0.8-9.1-2.4-12.8c-1.6-3.6-4-6.7-7.2-9.3
		c-3.2-2.6-7.4-4.5-12.4-5.8c-5.1-1.3-11.2-2-18.1-2h-50.7c-7,0-13,0.7-18.1,2c-5,1.3-9.2,3.2-12.4,5.8c-3.2,2.5-5.6,5.6-7.2,9.2
		C-4587.2,2072.1-4588,2076.3-4588,2081.2z M-4592.4,2143.4v-62.2c0-5.4,0.9-10.3,2.8-14.5c1.9-4.3,4.7-7.9,8.5-10.9
		c3.7-2.9,8.4-5.2,14-6.6c5.5-1.4,11.9-2.1,19.2-2.1h50.7c7.3,0,13.7,0.7,19.2,2.1c5.6,1.5,10.3,3.7,14,6.6c3.8,3,6.6,6.6,8.5,10.9
		c1.9,4.2,2.8,9.1,2.8,14.5v64.4h-25.9v-30.1h-88v30.1h-25.9V2143.4z M-4568.6,2096.1h92.4v-14.9c0-2.3-0.3-4.3-1-5.9
		c-0.6-1.7-1.8-3.1-3.4-4.2c-1.6-1.1-3.8-2-6.5-2.5c-2.7-0.6-6.1-0.8-10.1-0.8h-50.4c-4.1,0-7.4,0.3-10.1,0.8
		c-2.7,0.6-4.8,1.4-6.5,2.5c-1.6,1.1-2.8,2.5-3.4,4.2c-0.6,1.7-1,3.6-1,5.9V2096.1z M-4590.2,2143.4v-62.2
		c0-10.3,3.5-18.2,10.5-23.7c7-5.5,17.6-8.3,31.9-8.3h50.7c14.3,0,24.9,2.8,31.9,8.3c7,5.5,10.5,13.4,10.5,23.7v62.2h-21.6v-30.1
		h-92.4v30.1H-4590.2z M-4490.5,2001.4h-80v-29.9h80c2.5,0,4.8,0.2,6.7,0.5c2,0.4,3.7,1,5,1.7c1.4,0.9,2.5,2,3.3,3.3
		c0.8,1.3,1.1,2.8,1.1,4.5v9.7c0,1.7-0.4,3.2-1.1,4.5c-0.7,1.3-1.8,2.4-3.3,3.3c-1.3,0.8-3,1.4-5,1.7
		C-4485.7,2001.2-4488,2001.4-4490.5,2001.4z M-4566.1,1997h75.6c2.3,0,4.3-0.2,5.9-0.4c1.5-0.3,2.7-0.7,3.6-1.2
		c0.8-0.5,1.4-1,1.7-1.7c0.4-0.7,0.6-1.5,0.6-2.4v-9.7c0-0.9-0.2-1.8-0.5-2.4c-0.4-0.6-0.9-1.2-1.7-1.7c-0.9-0.5-2.1-0.9-3.6-1.2
		c-1.6-0.3-3.6-0.5-5.9-0.5h-75.6V1997z M-4587.7,1957.4v89.8h17.2v-33.7h28.7l1.2,0.4l51.5,33.3h30.2l-49.5-29.6l1.1-4h16.7
		c3.3,0,6.3-0.1,9-0.4c2.7-0.3,5.2-0.7,7.4-1.2c2.2-0.5,4.2-1.2,5.9-1.9c1.7-0.7,3.2-1.6,4.5-2.6c1.3-1,2.4-2,3.3-3.2
		c0.9-1.2,1.7-2.5,2.2-3.9c0.6-1.4,1-3,1.3-4.7c0.3-1.7,0.5-3.5,0.5-5.5v-9.3c0-2-0.2-3.8-0.5-5.5c-0.3-1.7-0.7-3.3-1.3-4.7
		c-0.6-1.4-1.3-2.7-2.2-3.9c-0.9-1.2-2-2.3-3.3-3.2c-1.3-1-2.8-1.8-4.5-2.6c-1.7-0.8-3.7-1.4-5.9-1.9c-2.2-0.5-4.7-0.9-7.4-1.2
		c-2.7-0.3-5.7-0.4-9-0.4H-4587.7z M-4592.1,2049.4V1953h101.4c3.3,0,6.5,0.1,9.4,0.4c2.9,0.3,5.6,0.7,8,1.3
		c2.5,0.6,4.7,1.3,6.7,2.2c2,0.9,3.8,1.9,5.4,3.1c1.6,1.2,2.9,2.5,4.1,4c1.2,1.5,2.1,3.1,2.8,4.9c0.7,1.7,1.2,3.6,1.6,5.6
		c0.3,2,0.5,4.1,0.5,6.3v9.3c0,2.2-0.2,4.3-0.5,6.3c-0.3,2-0.9,3.8-1.6,5.6c-0.7,1.8-1.7,3.4-2.8,4.9c-1.1,1.5-2.5,2.8-4.1,4
		c-1.5,1.2-3.4,2.2-5.4,3.1c-2,0.9-4.2,1.6-6.7,2.2c-2.4,0.6-5.1,1-8,1.3c-2.9,0.3-6.1,0.4-9.4,0.4h-8.8l49.5,29.6l-1.1,4h-38.7
		l-1.2-0.4l-51.5-33.3h-23.7v33.7h-25.9V2049.4z M-4722.6,1957.4v89.8h131.1v-14.1h-113.9v-32h93v-12.8h-93v-16.7h113.6v-14.1
		H-4722.6z M-4727,2049.4V1953h139.6v22.9h-113.6v8h93v21.6h-93v23.3h113.9v22.9H-4727V2049.4z M-4724.8,2049.4v-94.2h135.2v18.5
		h-113.6v12.4h93v17.2h-93v27.7h113.9v18.5H-4724.8z"/>
</g>
<g>
	<path class="st9" d="M-959,1196.2l9.5,2.6c-1.5,4.6-3.9,7.9-7.3,10.2c-3.4,2.2-7.7,3.3-12.9,3.3c-6.5,0-11.8-1.9-15.9-5.7
		c-4.2-3.8-6.2-9-6.2-15.5c0-6.9,2.1-12.3,6.3-16.2c4.2-3.8,9.7-5.8,16.5-5.8c6,0,10.8,1.5,14.5,4.5c2.2,1.8,3.9,4.3,5,7.7l-9.7,2
		c-0.6-2.2-1.8-3.9-3.6-5.1c-1.8-1.3-4-1.9-6.7-1.9c-3.6,0-6.5,1.1-8.8,3.3c-2.2,2.2-3.4,5.8-3.4,10.8c0,5.3,1.1,9,3.3,11.3
		c2.2,2.2,5.1,3.4,8.6,3.4c2.6,0,4.9-0.7,6.7-2.1C-961.2,1201.5-959.8,1199.3-959,1196.2 M-1013.5,1195l-6.7-15.5l-6.6,15.5H-1013.5
		z M-995.4,1211.5h-10.7l-4.2-9.5h-19.5l-4,9.5h-10.4l19-41.7h10.4L-995.4,1211.5z M-1064.9,1211.5v-34.7h-14.4v-7.1h38.7v7.1h-14.4
		v34.7H-1064.9z M-983,1141l-6.7-15.5l-6.6,15.5H-983z M-964.9,1157.5h-10.7l-4.3-9.5h-19.5l-4,9.5h-10.4l19-41.7h10.4
		L-964.9,1157.5z M-1028,1157.5v-41.7h9.8v41.7H-1028z M-1069.2,1157.5v-41.7h33.4v7.1h-23.6v9.9h20.3v7.1h-20.3v17.7H-1069.2z"/>
</g>
<g>
	<path class="st9" d="M-3475.5,1852.5l20.7,5.6c-3.2,9.9-8.4,17.3-15.8,22.1c-7.4,4.8-16.8,7.2-28.1,7.2c-14,0-25.6-4.1-34.6-12.3
		c-9-8.2-13.6-19.5-13.6-33.7c0-15.1,4.6-26.8,13.7-35.2c9.1-8.3,21-12.5,35.9-12.5c12.9,0,23.5,3.3,31.5,9.8
		c4.8,3.9,8.4,9.4,10.8,16.7l-21.2,4.3c-1.2-4.7-3.9-8.4-7.8-11.2c-4-2.7-8.8-4.1-14.5-4.1c-7.8,0-14.2,2.4-19.1,7.2
		c-4.9,4.8-7.3,12.6-7.3,23.4c0,11.5,2.4,19.6,7.2,24.5c4.8,4.9,11.1,7.3,18.8,7.3c5.7,0,10.6-1.5,14.7-4.6
		C-3480.2,1864-3477.3,1859.1-3475.5,1852.5 M-3593.9,1849.9l-14.6-33.7l-14.3,33.7H-3593.9z M-3554.5,1885.8h-23.3l-9.2-20.6h-42.3
		l-8.7,20.6h-22.7l41.2-90.7h22.6L-3554.5,1885.8z M-3705.5,1885.8v-75.3h-31.4v-15.3h84.1v15.3h-31.3v75.3H-3705.5z
		 M-3527.6,1732.4l-14.6-33.7l-14.3,33.7H-3527.6z M-3488.2,1768.3h-23.3l-9.2-20.6h-42.3l-8.7,20.6h-22.7l41.2-90.7h22.6
		L-3488.2,1768.3z M-3625.4,1768.3v-90.7h21.4v90.7H-3625.4z M-3714.9,1768.3v-90.7h72.6v15.4h-51.2v21.5h44.2v15.3h-44.2v38.5
		H-3714.9z"/>
</g>
<g>
	<text transform="matrix(1 0 0 1 -939.5853 1646.229)"><tspan x="0" y="0" class="st7" style="font-family:'Roboto-Bold'; font-size:76.2739px;">BIS (ISI – IS 694)</tspan><tspan x="0" y="91.5" class="st7" style="font-family:'Roboto-Bold'; font-size:76.2739px;">CE Certification</tspan><tspan x="0" y="183.1" class="st7" style="font-family:'Roboto-Bold'; font-size:76.2739px;">RoHS Compliance</tspan><tspan x="0" y="274.6" class="st7" style="font-family:'Roboto-Bold'; font-size:76.2739px;">ASHCO Certification</tspan><tspan x="0" y="366.1" class="st7" style="font-family:'Roboto-Bold'; font-size:76.2739px;">ERDA Certification</tspan><tspan x="0" y="457.6" class="st7" style="font-family:'Roboto-Bold'; font-size:76.2739px;">FIA TAC Approval</tspan></text>
</g>
<text transform="matrix(1 0 0 1 -1953.0187 3584.812)" class="st7" style="font-family:'Roboto-Bold'; font-size:70px;">FIA TAC Approval</text>
<text transform="matrix(1 0 0 1 -1953.0187 3176.2903)" class="st7" style="font-family:'Roboto-Bold'; font-size:70px;">ERDA Certification</text>
<text transform="matrix(1 0 0 1 -1953.0187 2734.8987)" class="st7" style="font-family:'Roboto-Bold'; font-size:70px;">ASHCO Certification</text>
<text transform="matrix(1 0 0 1 -1953.0187 2326.377)" class="st7" style="font-family:'Roboto-Bold'; font-size:70px;">RoHS Compliance</text>
<text transform="matrix(1 0 0 1 -1953.0187 1936.6379)" class="st7" style="font-family:'Roboto-Bold'; font-size:70px;">CE Certification</text>
<g>
	<path class="st5" d="M-2051.9,1479.6v-6l-3.8,6H-2051.9z M-2051.9,1486.1v-3.5l-6.7,0v-2.9l7.1-11.1h2.6v11.1h2v3l-2,0l0,3.5
		H-2051.9z M-2063.6,1474.7c0-1.1-0.2-1.9-0.7-2.5c-0.5-0.6-1-0.9-1.6-0.9c-0.6,0-1.1,0.2-1.4,0.7c-0.4,0.5-0.6,1.3-0.6,2.4
		c0,1.1,0.2,2,0.6,2.5c0.4,0.5,0.9,0.8,1.6,0.8c0.6,0,1.1-0.3,1.5-0.8C-2063.8,1476.4-2063.6,1475.7-2063.6,1474.7z M-2070.7,1482
		l3-0.4c0.1,0.7,0.3,1.2,0.6,1.5c0.3,0.3,0.7,0.5,1.2,0.5c0.6,0,1.2-0.3,1.6-1c0.5-0.6,0.7-2,0.9-4c-0.8,1-1.8,1.5-3,1.5
		c-1.3,0-2.4-0.5-3.3-1.6c-0.9-1.1-1.4-2.4-1.4-4.2c0-1.8,0.5-3.2,1.5-4.3c1-1.1,2.2-1.6,3.8-1.6c1.7,0,3,0.7,4.1,2.1
		c1.1,1.4,1.6,3.6,1.6,6.8c0,3.2-0.6,5.5-1.7,6.9c-1.1,1.4-2.6,2.1-4.3,2.1c-1.3,0-2.3-0.4-3.1-1.1
		C-2070,1484.6-2070.5,1483.5-2070.7,1482z M-2080,1480.2c0,1.1,0.2,1.9,0.7,2.5c0.5,0.6,1,0.9,1.6,0.9c0.6,0,1.1-0.2,1.5-0.7
		c0.4-0.5,0.6-1.3,0.6-2.4c0-1.1-0.2-2-0.6-2.5c-0.4-0.5-0.9-0.8-1.6-0.8c-0.6,0-1.1,0.3-1.5,0.8
		C-2079.8,1478.4-2080,1479.2-2080,1480.2z M-2072.9,1472.8l-3,0.4c-0.1-0.7-0.3-1.2-0.6-1.5c-0.3-0.3-0.7-0.5-1.2-0.5
		c-0.7,0-1.2,0.3-1.7,1c-0.5,0.6-0.7,2-0.9,4c0.8-1,1.8-1.5,2.9-1.5c1.3,0,2.4,0.5,3.4,1.6c0.9,1.1,1.4,2.4,1.4,4.1
		c0,1.8-0.5,3.2-1.5,4.3c-1,1.1-2.2,1.6-3.8,1.6c-1.7,0-3-0.7-4.1-2.1c-1.1-1.4-1.6-3.6-1.6-6.8c0-3.2,0.6-5.5,1.7-6.9
		c1.1-1.4,2.6-2.1,4.3-2.1c1.2,0,2.3,0.4,3.1,1.1C-2073.6,1470.3-2073.1,1471.4-2072.9,1472.8z M-2096.2,1486.1v-3.4h3.1v3.4
		H-2096.2z M-2096.2,1476.7v-3.4l3.1,0l0,3.4H-2096.2z M-2119.2,1480.4l3.2-0.3c0.2,1.2,0.6,2,1.2,2.6c0.6,0.5,1.4,0.8,2.4,0.8
		c1.1,0,1.9-0.2,2.4-0.7c0.5-0.5,0.8-1,0.8-1.7c0-0.4-0.1-0.8-0.3-1.1c-0.2-0.3-0.6-0.5-1.2-0.8c-0.4-0.1-1.3-0.4-2.6-0.8
		c-1.8-0.5-3-1-3.7-1.7c-1-1-1.5-2.1-1.5-3.5c0-0.9,0.2-1.7,0.7-2.5c0.5-0.8,1.2-1.4,2-1.8c0.9-0.4,2-0.6,3.2-0.6
		c2.1,0,3.6,0.5,4.6,1.4c1,1,1.6,2.3,1.6,3.9l-3.3,0.2c-0.1-0.9-0.4-1.6-0.9-1.9c-0.5-0.4-1.2-0.6-2.1-0.6c-1,0-1.7,0.2-2.3,0.6
		c-0.4,0.3-0.5,0.6-0.5,1.1c0,0.4,0.2,0.8,0.5,1.1c0.4,0.4,1.4,0.8,3,1.2c1.6,0.4,2.8,0.8,3.6,1.3c0.8,0.4,1.4,1,1.8,1.8
		c0.4,0.8,0.7,1.7,0.7,2.8c0,1-0.3,1.9-0.8,2.8c-0.5,0.9-1.3,1.5-2.2,2c-1,0.4-2.1,0.6-3.6,0.6c-2.1,0-3.7-0.5-4.8-1.5
		S-2119,1482.3-2119.2,1480.4z M-2124.8,1486.1v-17.5h3.3v17.5H-2124.8z"/>
	<path class="st5" d="M-2023.3,1608.5l3.1-0.4c0.1,0.8,0.3,1.5,0.8,2c0.5,0.5,0.9,0.7,1.5,0.7c0.6,0,1.2-0.3,1.6-0.9
		c0.5-0.6,0.7-1.6,0.7-2.9c0-1.2-0.2-2.1-0.7-2.7c-0.5-0.6-1-0.9-1.7-0.9c-0.9,0-1.7,0.5-2.4,1.4l-2.5-0.4l1.6-10.1h8.1v3.5h-5.8
		l-0.5,3.3c0.7-0.4,1.4-0.6,2.1-0.6c1.3,0,2.3,0.5,3.2,1.5c1.1,1.3,1.7,2.9,1.7,5c0,1.7-0.5,3.3-1.4,4.7c-0.9,1.4-2.3,2.1-4.1,2.1
		c-1.4,0-2.6-0.5-3.6-1.4C-2022.5,1611.5-2023.1,1610.2-2023.3,1608.5 M-2032.3,1607c0,1.2,0.2,2.2,0.7,2.8c0.5,0.6,1,1,1.6,1
		c0.6,0,1-0.3,1.4-0.8c0.4-0.5,0.6-1.4,0.6-2.6c0-1.3-0.2-2.2-0.6-2.8c-0.4-0.6-0.9-0.9-1.5-0.9c-0.6,0-1.1,0.3-1.5,0.8
		C-2032.1,1605.1-2032.3,1605.9-2032.3,1607z M-2025.4,1598.9l-3,0.4c-0.1-1.4-0.7-2.2-1.8-2.2c-0.7,0-1.2,0.4-1.7,1.1
		c-0.4,0.7-0.7,2.2-0.8,4.4c0.4-0.5,0.8-1,1.3-1.2c0.5-0.3,1-0.4,1.6-0.4c1.3,0,2.4,0.6,3.3,1.7c0.9,1.2,1.4,2.7,1.4,4.6
		c0,2-0.5,3.6-1.5,4.8c-1,1.2-2.2,1.7-3.7,1.7c-1.6,0-2.9-0.8-4-2.3c-1.1-1.5-1.6-4-1.6-7.5c0-3.5,0.6-6.1,1.6-7.7
		c1.1-1.6,2.5-2.3,4.2-2.3c1.2,0,2.2,0.4,3,1.2C-2026.1,1596.1-2025.6,1597.3-2025.4,1598.9z M-2048.4,1608.4l3-0.4
		c0.1,0.9,0.3,1.6,0.8,2.1c0.4,0.5,0.9,0.7,1.5,0.7c0.6,0,1.2-0.3,1.6-0.9c0.4-0.6,0.7-1.4,0.7-2.4c0-0.9-0.2-1.7-0.6-2.2
		c-0.4-0.5-0.9-0.8-1.5-0.8c-0.4,0-0.9,0.1-1.4,0.3l0.3-3c0.8,0,1.4-0.2,1.9-0.6c0.5-0.4,0.7-1.1,0.7-1.9c0-0.7-0.2-1.2-0.5-1.6
		c-0.3-0.4-0.8-0.6-1.3-0.6c-0.5,0-1,0.2-1.3,0.7c-0.4,0.4-0.6,1.1-0.7,1.9l-2.8-0.6c0.3-1.8,0.9-3.1,1.7-3.9
		c0.9-0.8,1.9-1.2,3.2-1.2c1.5,0,2.6,0.5,3.5,1.5c0.9,1,1.3,2.2,1.3,3.4c0,0.8-0.2,1.6-0.6,2.3c-0.4,0.7-1,1.3-1.7,1.8
		c0.9,0.2,1.6,0.8,2.2,1.6c0.6,0.8,0.9,1.8,0.9,3c0,1.8-0.5,3.2-1.6,4.4c-1.1,1.2-2.3,1.7-3.8,1.7c-1.4,0-2.6-0.5-3.6-1.5
		C-2047.7,1611.4-2048.2,1610.1-2048.4,1608.4z M-2052.9,1613.5h-3.1v-14c-1.2,1.3-2.5,2.2-4,2.8v-3.4c0.9-0.3,1.7-1,2.7-1.8
		c0.9-0.9,1.6-1.9,1.9-3.1h2.5V1613.5z M-2064.1,1613.5h-3.1v-14c-1.1,1.3-2.5,2.2-4,2.8v-3.4c0.9-0.3,1.7-1,2.7-1.8
		c0.9-0.9,1.6-1.9,1.9-3.1h2.5V1613.5z M-2084.6,1608.4l3-0.4c0.1,0.9,0.3,1.6,0.8,2.1c0.4,0.5,0.9,0.7,1.5,0.7
		c0.6,0,1.2-0.3,1.6-0.9c0.4-0.6,0.7-1.4,0.7-2.4c0-0.9-0.2-1.7-0.6-2.2c-0.4-0.5-0.9-0.8-1.5-0.8c-0.4,0-0.9,0.1-1.4,0.3l0.3-3
		c0.8,0,1.4-0.2,1.9-0.6c0.5-0.4,0.7-1.1,0.7-1.9c0-0.7-0.2-1.2-0.5-1.6c-0.3-0.4-0.8-0.6-1.3-0.6c-0.5,0-1,0.2-1.3,0.7
		c-0.4,0.4-0.6,1.1-0.7,1.9l-2.8-0.6c0.3-1.8,0.9-3.1,1.7-3.9c0.9-0.8,1.9-1.2,3.2-1.2c1.5,0,2.6,0.5,3.5,1.5c0.9,1,1.3,2.2,1.3,3.4
		c0,0.8-0.2,1.6-0.6,2.3c-0.4,0.7-1,1.3-1.7,1.8c0.9,0.2,1.6,0.8,2.2,1.6c0.6,0.8,0.8,1.8,0.8,3c0,1.8-0.5,3.2-1.6,4.4
		c-1.1,1.2-2.3,1.7-3.8,1.7c-1.4,0-2.6-0.5-3.6-1.5C-2083.9,1611.4-2084.4,1610.1-2084.6,1608.4z M-2089.9,1600.9
		c0-1.2-0.2-2.1-0.7-2.8c-0.5-0.7-1-1-1.6-1c-0.6,0-1,0.3-1.4,0.8c-0.4,0.5-0.6,1.4-0.6,2.7c0,1.2,0.2,2.2,0.6,2.7
		c0.4,0.6,0.9,0.9,1.5,0.9c0.6,0,1.1-0.3,1.5-0.8C-2090.1,1602.9-2089.9,1602-2089.9,1600.9z M-2096.9,1609l3-0.4
		c0.1,1.4,0.7,2.1,1.7,2.1c0.7,0,1.2-0.4,1.7-1.1c0.4-0.7,0.7-2.2,0.8-4.4c-0.4,0.5-0.8,0.9-1.3,1.2c-0.5,0.3-1,0.4-1.6,0.4
		c-1.2,0-2.3-0.6-3.2-1.7c-0.9-1.2-1.4-2.7-1.4-4.6c0-2,0.5-3.6,1.5-4.8c1-1.2,2.2-1.8,3.7-1.8c1.6,0,3,0.8,4,2.3
		c1.1,1.5,1.6,4,1.6,7.5c0,3.6-0.5,6.1-1.6,7.7c-1.1,1.6-2.5,2.3-4.3,2.3c-1.2,0-2.2-0.4-3-1.2
		C-2096.2,1611.9-2096.7,1610.7-2096.9,1609z M-2104.7,1608.3v-3.7h6.1v3.7H-2104.7z M-2117.4,1613.5v-19.2h3.2v15.9l8.1,0l0,3.3
		H-2117.4z M-2125.4,1613.8l4-20h2.3l-4,20H-2125.4z M-2142.5,1613.5l0-19.4h4.9l2.9,13.2l2.9-13.2l4.9,0v19.4h-3v-15.2l-3.2,15.2
		h-3.1l-3.2-15.2v15.2H-2142.5z M-2148.4,1606.4l3.1,1.2c-0.5,2.2-1.3,3.7-2.4,4.7c-1.1,1-2.5,1.5-4.2,1.5c-2.1,0-3.8-0.8-5.1-2.4
		c-1.5-1.8-2.3-4.3-2.3-7.4c0-3.3,0.8-5.9,2.3-7.7c1.3-1.6,3.1-2.4,5.3-2.4c1.8,0,3.3,0.6,4.5,1.8c0.9,0.9,1.5,2.1,1.9,3.8l-3.2,0.9
		c-0.2-1.1-0.6-1.9-1.2-2.4c-0.6-0.6-1.3-0.8-2.2-0.8c-1.2,0-2.2,0.5-2.9,1.5c-0.7,1-1.1,2.7-1.1,5.1c0,2.4,0.4,4.2,1.1,5.2
		c0.7,1,1.7,1.5,2.8,1.5c0.9,0,1.6-0.3,2.2-1C-2149.1,1608.9-2148.6,1607.8-2148.4,1606.4z"/>
	<path class="st9" d="M-2043.7,1527.8c3.4,0,6.8,0,10.2,0c0-5.1,0-10.1,0-15.2c-0.8-5.6-4.3-6.6-8-7.1c-19.6,0-39.3,0-58.9,0
		c-4.8-0.1-8.1,2.9-7.9,7.3c0,7.7,0,15.4,0,23.2c0,4.3,2,7.2,7.6,7.6c8.1,0,16.1,0,24.2,0c2.1,0.3,3.5,1.2,3.3,3.5c0,4.3,0,8.6,0,13
		c0,1.6-0.8,2.8-3.1,3c-16,0-31.9,0-47.9,0c-2.2-0.2-3.4-1.3-3.4-3.3c0-3.1,0-6.1,0-9.2c0,0-0.1,0-0.1,0c-3-0.1-6-0.2-9-0.3
		c-0.7,0-1.1,0.3-1,1c0,4.5,0,9.1,0,13.6c0.6,4.2,3.1,6.6,7.8,7.2c19.1,0,38.1,0,57.2,0c5.1,0.7,8.5-0.9,9.6-5.8
		c0-8.1,0-16.1,0-24.2c0.3-5.9-3.2-7.7-7.7-8.3c-8.3,0-16.5,0-24.8,0c-2.2-0.4-2.9-1.9-2.8-3.8c0-4.1,0-8.2,0-12.3
		c0.3-1.6,1-2.7,3.3-2.6c15.9,0,31.9,0,47.8,0c2.2,0.1,3.5,1.3,3.8,3.6C-2043.5,1518.7-2043.8,1527.8-2043.7,1527.8 M-2058.2,1519.5
		h10l0,53.1h-10V1519.5z M-2123.1,1505.6h10v53.1l-10,0V1505.6z M-2130.8,1500.7h90.1c6.7,0,12.1,5.1,12.1,11.4v53
		c0,6.3-5.5,11.4-12.1,11.4h-90.1c-6.7,0-12.1-5.1-12.1-11.4v-53C-2143,1505.8-2137.5,1500.7-2130.8,1500.7z M-2131.6,1491h92.8
		c11.3,0,20.5,8.8,20.5,19.5v56.6c0,10.6-9.2,19.3-20.5,19.3l-92.8,0c-11.3,0-21.9-8.7-21.9-19.3v-56.6
		C-2153.5,1499.9-2142.9,1491-2131.6,1491z"/>
</g>
<g>
	<path class="st5" d="M-4128.1,1403.2v-11l-6.9,11H-4128.1z M-4128.1,1415.1v-6.5l-12.3,0v-5.4l13.1-20.5h4.8v20.5h3.7v5.4l-3.7,0
		l0,6.5H-4128.1z M-4149.7,1394.1c0-2-0.4-3.5-1.3-4.6c-0.9-1.1-1.9-1.7-3-1.7c-1.1,0-2,0.5-2.7,1.4c-0.7,0.9-1.1,2.4-1.1,4.4
		c0,2.1,0.4,3.6,1.1,4.6c0.8,1,1.7,1.5,2.9,1.5c1.1,0,2.1-0.5,2.8-1.4C-4150.1,1397.4-4149.7,1396-4149.7,1394.1z M-4162.8,1407.7
		l5.6-0.7c0.1,1.2,0.5,2.1,1.1,2.7c0.6,0.6,1.3,0.9,2.3,0.9c1.2,0,2.2-0.6,3-1.8c0.8-1.2,1.4-3.6,1.6-7.3c-1.5,1.8-3.3,2.7-5.4,2.7
		c-2.4,0-4.4-1-6.1-2.9c-1.7-2-2.6-4.5-2.6-7.7c0-3.3,0.9-5.9,2.7-7.9c1.8-2,4.1-3,6.9-3c3.1,0,5.6,1.3,7.5,3.8
		c2,2.5,2.9,6.7,2.9,12.5c0,5.9-1,10.2-3.1,12.8c-2,2.6-4.7,3.9-8,3.9c-2.4,0-4.3-0.7-5.7-2
		C-4161.4,1412.3-4162.3,1410.3-4162.8,1407.7z M-4179.8,1404.3c0,2,0.4,3.6,1.3,4.7c0.9,1.1,1.9,1.6,3,1.6c1.1,0,2-0.4,2.7-1.3
		c0.7-0.9,1.1-2.4,1.1-4.4c0-2.1-0.4-3.6-1.2-4.6c-0.8-1-1.7-1.5-2.9-1.5c-1.1,0-2.1,0.5-2.8,1.4
		C-4179.4,1401.1-4179.8,1402.4-4179.8,1404.3z M-4166.7,1390.8l-5.6,0.7c-0.1-1.2-0.5-2.1-1.1-2.7c-0.6-0.6-1.3-0.9-2.2-0.9
		c-1.2,0-2.2,0.6-3.1,1.8c-0.8,1.2-1.4,3.6-1.6,7.3c1.4-1.8,3.2-2.7,5.4-2.7c2.4,0,4.5,1,6.2,3c1.7,2,2.6,4.5,2.6,7.6
		c0,3.3-0.9,6-2.7,8c-1.8,2-4.1,3-7,3c-3,0-5.5-1.3-7.5-3.8c-2-2.5-2.9-6.7-2.9-12.5c0-5.9,1-10.2,3.1-12.8c2-2.6,4.7-3.9,8-3.9
		c2.3,0,4.2,0.7,5.7,2.1C-4168.1,1386.2-4167.1,1388.1-4166.7,1390.8z M-4209.7,1415.1v-6.2h5.8v6.2H-4209.7z M-4209.7,1397.9v-6.2
		l5.8,0l0,6.2H-4209.7z M-4252.1,1404.6l5.9-0.6c0.3,2.1,1.1,3.7,2.2,4.7c1.1,1,2.6,1.5,4.4,1.5c2,0,3.4-0.4,4.4-1.3
		c1-0.9,1.5-1.9,1.5-3.1c0-0.8-0.2-1.4-0.6-1.9c-0.4-0.5-1.1-1-2.2-1.4c-0.7-0.3-2.3-0.7-4.9-1.4c-3.3-0.9-5.6-1.9-6.9-3.2
		c-1.9-1.8-2.8-3.9-2.8-6.5c0-1.6,0.4-3.2,1.3-4.6c0.9-1.4,2.1-2.5,3.8-3.3c1.6-0.7,3.6-1.1,5.9-1.1c3.8,0,6.6,0.9,8.5,2.7
		c1.9,1.8,2.9,4.1,3,7.1l-6.1,0.3c-0.3-1.7-0.8-2.9-1.7-3.6c-0.9-0.7-2.1-1.1-3.9-1.1c-1.8,0-3.2,0.4-4.2,1.2c-0.6,0.5-1,1.2-1,2
		c0,0.8,0.3,1.4,0.9,2c0.8,0.7,2.6,1.4,5.6,2.2c3,0.8,5.2,1.5,6.6,2.3c1.4,0.8,2.5,1.9,3.3,3.3c0.8,1.4,1.2,3.1,1.2,5.1
		c0,1.8-0.5,3.6-1.4,5.2c-1,1.6-2.3,2.8-4.1,3.6c-1.8,0.8-3.9,1.2-6.6,1.2c-3.8,0-6.7-0.9-8.8-2.8
		C-4250.5,1411-4251.7,1408.2-4252.1,1404.6z M-4262.4,1415.1v-32.3h6.1v32.3H-4262.4z"/>
	<path class="st5" d="M-4075.3,1640.7l5.7-0.7c0.1,1.5,0.6,2.8,1.4,3.7c0.8,0.9,1.7,1.3,2.7,1.3c1.2,0,2.2-0.6,3-1.7
		c0.8-1.1,1.3-2.9,1.3-5.3c0-2.2-0.4-3.9-1.2-5c-0.8-1.1-1.9-1.6-3.2-1.6c-1.6,0-3.1,0.9-4.4,2.6l-4.6-0.8l2.9-18.5h15v6.4h-10.7
		l-0.9,6.1c1.3-0.8,2.6-1.1,3.9-1.1c2.3,0,4.3,0.9,5.9,2.7c2.1,2.3,3.1,5.4,3.1,9.2c0,3.1-0.9,6-2.6,8.6c-1.7,2.6-4.2,3.9-7.5,3.9
		c-2.6,0-4.8-0.8-6.6-2.5C-4073.9,1646.2-4075,1643.8-4075.3,1640.7 M-4092,1637.8c0,2.2,0.4,4,1.3,5.2c0.8,1.2,1.8,1.8,2.9,1.8
		c1,0,1.9-0.5,2.6-1.5c0.7-1,1-2.6,1-4.9c0-2.3-0.4-4-1.1-5.1c-0.8-1.1-1.7-1.6-2.8-1.6c-1.1,0-2,0.5-2.8,1.5
		C-4091.7,1634.3-4092,1635.8-4092,1637.8z M-4079.2,1622.9l-5.5,0.7c-0.3-2.7-1.3-4-3.2-4c-1.2,0-2.3,0.7-3.1,2
		c-0.8,1.3-1.3,4-1.5,8c0.7-1,1.5-1.8,2.4-2.3c0.9-0.5,1.8-0.8,2.9-0.8c2.3,0,4.3,1.1,6.1,3.2c1.7,2.1,2.6,5,2.6,8.5
		c0,3.8-0.9,6.7-2.7,8.9c-1.8,2.1-4.1,3.2-6.8,3.2c-3,0-5.4-1.4-7.4-4.2c-1.9-2.8-2.9-7.4-2.9-13.8c0-6.5,1-11.2,3-14.1
		c2-2.9,4.6-4.3,7.8-4.3c2.2,0,4,0.7,5.5,2.2C-4080.6,1617.7-4079.6,1620-4079.2,1622.9z M-4121.6,1640.4l5.5-0.8
		c0.1,1.7,0.6,3,1.4,3.9c0.8,0.9,1.7,1.3,2.8,1.3c1.2,0,2.2-0.5,3-1.6c0.8-1.1,1.2-2.5,1.2-4.4c0-1.7-0.4-3.1-1.2-4.1
		c-0.8-1-1.7-1.5-2.8-1.5c-0.7,0-1.6,0.2-2.6,0.5l0.6-5.6c1.5,0,2.6-0.4,3.5-1.2c0.8-0.8,1.3-2,1.3-3.4c0-1.2-0.3-2.2-0.9-2.9
		c-0.6-0.7-1.4-1-2.3-1c-1,0-1.8,0.4-2.5,1.2c-0.7,0.8-1.1,2-1.2,3.6l-5.2-1.1c0.5-3.3,1.6-5.6,3.2-7.1c1.6-1.5,3.6-2.2,6-2.2
		c2.7,0,4.8,1,6.4,2.8c1.6,1.9,2.4,4,2.4,6.3c0,1.6-0.4,3-1.1,4.2c-0.7,1.2-1.8,2.3-3.2,3.3c1.7,0.4,3,1.4,4,2.9
		c1,1.5,1.6,3.4,1.6,5.6c0,3.3-1,5.9-2.9,8.1c-2,2.1-4.3,3.2-7,3.2c-2.6,0-4.8-0.9-6.6-2.7
		C-4120.3,1646-4121.3,1643.5-4121.6,1640.4z M-4129.9,1649.8h-5.7v-25.7c-2.1,2.4-4.6,4.1-7.3,5.2v-6.2c1.6-0.6,3.2-1.8,4.9-3.4
		c1.7-1.6,2.9-3.5,3.5-5.6h4.6V1649.8z M-4150.6,1649.8h-5.7v-25.7c-2.1,2.4-4.6,4.1-7.3,5.2v-6.2c1.6-0.6,3.2-1.8,4.9-3.4
		c1.7-1.6,2.9-3.5,3.5-5.6h4.6V1649.8z M-4188.3,1640.4l5.5-0.8c0.1,1.7,0.6,3,1.4,3.9c0.8,0.9,1.7,1.3,2.8,1.3c1.2,0,2.2-0.5,3-1.6
		c0.8-1.1,1.2-2.5,1.2-4.4c0-1.7-0.4-3.1-1.2-4.1c-0.8-1-1.7-1.5-2.8-1.5c-0.7,0-1.6,0.2-2.6,0.5l0.6-5.6c1.5,0,2.6-0.4,3.5-1.2
		c0.8-0.8,1.3-2,1.3-3.4c0-1.2-0.3-2.2-0.9-2.9c-0.6-0.7-1.4-1-2.3-1c-1,0-1.8,0.4-2.5,1.2c-0.7,0.8-1.1,2-1.2,3.6l-5.2-1.1
		c0.5-3.3,1.6-5.6,3.2-7.1c1.6-1.5,3.6-2.2,6-2.2c2.7,0,4.8,1,6.4,2.8c1.6,1.9,2.4,4,2.4,6.3c0,1.6-0.4,3-1.1,4.2
		c-0.7,1.2-1.8,2.3-3.2,3.3c1.7,0.4,3,1.4,4.1,2.9c1,1.5,1.6,3.4,1.6,5.6c0,3.3-1,5.9-2.9,8.1c-2,2.1-4.3,3.2-7,3.2
		c-2.6,0-4.8-0.9-6.6-2.7C-4187,1646-4188.1,1643.5-4188.3,1640.4z M-4198.2,1626.7c0-2.2-0.4-4-1.3-5.2c-0.9-1.2-1.8-1.8-2.9-1.8
		c-1.1,0-1.9,0.5-2.6,1.5c-0.7,1-1.1,2.6-1.1,4.9c0,2.3,0.4,4,1.2,5.1c0.8,1.1,1.7,1.6,2.8,1.6c1.1,0,2-0.5,2.7-1.5
		C-4198.6,1630.3-4198.2,1628.7-4198.2,1626.7z M-4211,1641.6l5.5-0.7c0.3,2.6,1.3,4,3.2,4c1.3,0,2.3-0.7,3.1-2c0.8-1.3,1.3-4,1.6-8
		c-0.7,1-1.5,1.7-2.4,2.2c-0.9,0.5-1.9,0.8-3,0.8c-2.3,0-4.2-1.1-6-3.2c-1.7-2.1-2.6-4.9-2.6-8.5c0-3.8,0.9-6.7,2.7-8.9
		c1.8-2.2,4.1-3.2,6.7-3.2c3,0,5.5,1.4,7.4,4.2c1.9,2.8,2.9,7.4,2.9,13.8c0,6.6-1,11.3-3,14.1c-2,2.9-4.6,4.3-7.9,4.3
		c-2.2,0-4.1-0.7-5.5-2.2C-4209.7,1646.9-4210.6,1644.6-4211,1641.6z M-4225.4,1640.3v-6.8h11.2v6.8H-4225.4z M-4248.8,1649.8v-35.3
		h6v29.3l14.9,0l0,6H-4248.8z M-4263.5,1650.5l7.3-36.9h4.3l-7.4,36.9H-4263.5z M-4294.9,1649.8l0-35.6h8.9l5.4,24.3l5.3-24.3l9,0
		v35.6h-5.5v-28.1l-5.9,28.1h-5.8l-5.8-28.1v28.1H-4294.9z M-4305.8,1636.7l5.8,2.2c-0.9,4-2.4,6.9-4.5,8.7
		c-2.1,1.8-4.7,2.8-7.8,2.8c-3.9,0-7-1.5-9.4-4.4c-2.8-3.4-4.1-8-4.1-13.7c0-6.1,1.4-10.8,4.2-14.3c2.4-3,5.6-4.5,9.7-4.5
		c3.3,0,6.1,1.1,8.3,3.4c1.6,1.6,2.8,4,3.5,7.1l-5.9,1.7c-0.4-1.9-1.1-3.4-2.3-4.4c-1.1-1-2.5-1.5-4-1.5c-2.2,0-4,0.9-5.3,2.8
		c-1.4,1.9-2.1,5-2.1,9.3c0,4.5,0.7,7.7,2,9.6c1.3,1.9,3.1,2.8,5.2,2.8c1.6,0,2.9-0.6,4.1-1.8
		C-4307.1,1641.3-4306.3,1639.4-4305.8,1636.7z"/>
	<path class="st9" d="M-4113,1491.9c6.2,0,12.5,0,18.7,0c0-9.3,0-18.6,0-27.9c-1.5-10.3-8-12.2-14.7-13.1c-36.2,0-72.3,0-108.5,0
		c-8.9-0.3-14.9,5.3-14.6,13.5c0,14.2,0,28.4,0,42.7c0,7.8,3.7,13.2,13.9,14.1c14.9,0,29.7,0,44.6,0c3.9,0.5,6.5,2.2,6.1,6.5
		c0,8,0,15.9,0,23.9c-0.1,2.9-1.5,5.1-5.8,5.5c-29.4,0-58.8,0-88.2,0c-4.1-0.3-6.2-2.4-6.3-6.1c0-5.7,0-11.3,0-17
		c-0.1,0-0.1,0-0.2,0c-5.5-0.2-11-0.4-16.6-0.6c-1.3,0-2,0.6-1.9,1.8c0,8.4,0,16.7,0,25.1c1.1,7.7,5.7,12.2,14.3,13.2
		c35.1,0,70.2,0,105.3,0c9.3,1.2,15.7-1.7,17.8-10.7c0-14.9,0-29.7,0-44.6c0.6-10.9-5.8-14.2-14.2-15.3c-15.2,0-30.4,0-45.6,0
		c-4.1-0.8-5.3-3.4-5.1-7c0-7.5,0-15,0-22.6c0.5-3,1.8-4.9,6.2-4.8c29.3,0,58.7,0,88,0c4.1,0.2,6.4,2.4,7.1,6.7
		C-4112.7,1475.2-4113.2,1491.9-4113,1491.9 M-4139.8,1476.7h18.4l0,97.7h-18.4V1476.7z M-4259.3,1451h18.4v97.7l-18.4,0V1451z
		 M-4273.5,1442.1h166c12.3,0,22.3,9.4,22.3,21v97.6c0,11.5-10,21-22.3,21h-166c-12.3,0-22.3-9.4-22.3-21v-97.6
		C-4295.8,1451.5-4285.8,1442.1-4273.5,1442.1z M-4274.9,1424.3h171c20.8,0,37.8,16.3,37.8,35.8v104.2c0,19.5-17,35.5-37.8,35.5
		l-171,0c-20.8,0-40.3-16-40.3-35.5v-104.2C-4315.2,1440.6-4295.7,1424.3-4274.9,1424.3z"/>
</g>
<g>
	<path class="st5" d="M-2166.5,1094.5v-6l-3.8,6H-2166.5z M-2166.5,1101v-3.5l-6.7,0v-2.9l7.1-11.1h2.6v11.1h2v3l-2,0l0,3.5H-2166.5
		z M-2178.2,1089.6c0-1.1-0.2-1.9-0.7-2.5c-0.5-0.6-1-0.9-1.6-0.9c-0.6,0-1.1,0.2-1.4,0.7c-0.4,0.5-0.6,1.3-0.6,2.4
		c0,1.1,0.2,2,0.6,2.5c0.4,0.5,0.9,0.8,1.6,0.8c0.6,0,1.1-0.3,1.5-0.8C-2178.4,1091.3-2178.2,1090.5-2178.2,1089.6z M-2185.3,1096.9
		l3-0.4c0.1,0.7,0.3,1.2,0.6,1.5c0.3,0.3,0.7,0.5,1.2,0.5c0.6,0,1.2-0.3,1.6-1c0.5-0.6,0.7-2,0.9-4c-0.8,1-1.8,1.5-3,1.5
		c-1.3,0-2.4-0.5-3.3-1.6c-0.9-1.1-1.4-2.4-1.4-4.2c0-1.8,0.5-3.2,1.5-4.3c1-1.1,2.2-1.6,3.8-1.6c1.7,0,3,0.7,4.1,2.1
		c1.1,1.4,1.6,3.6,1.6,6.8c0,3.2-0.6,5.5-1.7,6.9c-1.1,1.4-2.6,2.1-4.3,2.1c-1.3,0-2.3-0.4-3.1-1.1
		C-2184.6,1099.4-2185.1,1098.4-2185.3,1096.9z M-2194.6,1095c0,1.1,0.2,1.9,0.7,2.5c0.5,0.6,1,0.9,1.6,0.9c0.6,0,1.1-0.2,1.5-0.7
		c0.4-0.5,0.6-1.3,0.6-2.4c0-1.1-0.2-2-0.6-2.5c-0.4-0.5-0.9-0.8-1.6-0.8c-0.6,0-1.1,0.3-1.5,0.8
		C-2194.4,1093.3-2194.6,1094.1-2194.6,1095z M-2187.5,1087.7l-3,0.4c-0.1-0.7-0.3-1.2-0.6-1.5c-0.3-0.3-0.7-0.5-1.2-0.5
		c-0.7,0-1.2,0.3-1.7,1c-0.5,0.6-0.7,2-0.9,4c0.8-1,1.8-1.5,2.9-1.5c1.3,0,2.4,0.5,3.4,1.6c0.9,1.1,1.4,2.4,1.4,4.1
		c0,1.8-0.5,3.2-1.5,4.3c-1,1.1-2.2,1.6-3.8,1.6c-1.7,0-3-0.7-4.1-2.1c-1.1-1.4-1.6-3.6-1.6-6.8c0-3.2,0.6-5.5,1.7-6.9
		c1.1-1.4,2.6-2.1,4.3-2.1c1.2,0,2.3,0.4,3.1,1.1C-2188.2,1085.2-2187.7,1086.3-2187.5,1087.7z M-2210.8,1101v-3.4h3.1v3.4H-2210.8z
		 M-2210.8,1091.6v-3.4l3.1,0l0,3.4H-2210.8z M-2233.8,1095.3l3.2-0.3c0.2,1.2,0.6,2,1.2,2.6c0.6,0.5,1.4,0.8,2.4,0.8
		c1.1,0,1.9-0.2,2.4-0.7c0.5-0.5,0.8-1,0.8-1.7c0-0.4-0.1-0.8-0.3-1.1c-0.2-0.3-0.6-0.5-1.2-0.8c-0.4-0.1-1.3-0.4-2.6-0.8
		c-1.8-0.5-3-1-3.7-1.7c-1-1-1.5-2.1-1.5-3.5c0-0.9,0.2-1.7,0.7-2.5c0.5-0.8,1.2-1.4,2-1.8c0.9-0.4,2-0.6,3.2-0.6
		c2.1,0,3.6,0.5,4.6,1.4c1,1,1.6,2.3,1.6,3.9l-3.3,0.2c-0.1-0.9-0.4-1.6-0.9-1.9c-0.5-0.4-1.2-0.6-2.1-0.6c-1,0-1.7,0.2-2.3,0.6
		c-0.4,0.3-0.5,0.6-0.5,1.1c0,0.4,0.2,0.8,0.5,1.1c0.4,0.4,1.4,0.8,3,1.2c1.6,0.4,2.8,0.8,3.6,1.3c0.8,0.4,1.4,1,1.8,1.8
		c0.4,0.8,0.7,1.7,0.7,2.8c0,1-0.3,1.9-0.8,2.8c-0.5,0.9-1.3,1.5-2.2,2c-1,0.4-2.1,0.6-3.6,0.6c-2.1,0-3.7-0.5-4.8-1.5
		S-2233.6,1097.2-2233.8,1095.3z M-2239.4,1101v-17.5h3.3v17.5H-2239.4z"/>
	<path class="st5" d="M-2137.8,1223.4l3.1-0.4c0.1,0.8,0.3,1.5,0.8,2c0.5,0.5,0.9,0.7,1.5,0.7c0.6,0,1.2-0.3,1.6-0.9
		c0.5-0.6,0.7-1.6,0.7-2.9c0-1.2-0.2-2.1-0.7-2.7c-0.5-0.6-1-0.9-1.7-0.9c-0.9,0-1.7,0.5-2.4,1.4l-2.5-0.4l1.6-10.1h8.1v3.5h-5.8
		l-0.5,3.3c0.7-0.4,1.4-0.6,2.1-0.6c1.3,0,2.3,0.5,3.2,1.5c1.1,1.3,1.7,2.9,1.7,5c0,1.7-0.5,3.3-1.4,4.7c-0.9,1.4-2.3,2.1-4.1,2.1
		c-1.4,0-2.6-0.5-3.6-1.4C-2137.1,1226.4-2137.6,1225.1-2137.8,1223.4 M-2146.9,1221.9c0,1.2,0.2,2.2,0.7,2.8c0.5,0.6,1,1,1.6,1
		c0.6,0,1-0.3,1.4-0.8c0.4-0.5,0.6-1.4,0.6-2.6c0-1.3-0.2-2.2-0.6-2.8c-0.4-0.6-0.9-0.9-1.5-0.9c-0.6,0-1.1,0.3-1.5,0.8
		C-2146.7,1219.9-2146.9,1220.8-2146.9,1221.9z M-2139.9,1213.8l-3,0.4c-0.1-1.4-0.7-2.2-1.8-2.2c-0.7,0-1.2,0.4-1.7,1.1
		c-0.4,0.7-0.7,2.2-0.8,4.4c0.4-0.5,0.8-1,1.3-1.2c0.5-0.3,1-0.4,1.6-0.4c1.3,0,2.4,0.6,3.3,1.7c0.9,1.2,1.4,2.7,1.4,4.6
		c0,2-0.5,3.6-1.5,4.8c-1,1.2-2.2,1.7-3.7,1.7c-1.6,0-2.9-0.8-4-2.3c-1.1-1.5-1.6-4-1.6-7.5c0-3.5,0.6-6.1,1.6-7.7
		c1.1-1.6,2.5-2.3,4.2-2.3c1.2,0,2.2,0.4,3,1.2C-2140.7,1210.9-2140.2,1212.2-2139.9,1213.8z M-2163,1223.3l3-0.4
		c0.1,0.9,0.3,1.6,0.8,2.1c0.4,0.5,0.9,0.7,1.5,0.7c0.6,0,1.2-0.3,1.6-0.9c0.4-0.6,0.7-1.4,0.7-2.4c0-0.9-0.2-1.7-0.6-2.2
		c-0.4-0.5-0.9-0.8-1.5-0.8c-0.4,0-0.9,0.1-1.4,0.3l0.3-3c0.8,0,1.4-0.2,1.9-0.6c0.5-0.4,0.7-1.1,0.7-1.9c0-0.7-0.2-1.2-0.5-1.6
		c-0.3-0.4-0.8-0.6-1.3-0.6c-0.5,0-1,0.2-1.3,0.7c-0.4,0.4-0.6,1.1-0.7,1.9l-2.8-0.6c0.3-1.8,0.9-3.1,1.7-3.9
		c0.9-0.8,1.9-1.2,3.2-1.2c1.5,0,2.6,0.5,3.5,1.5c0.9,1,1.3,2.2,1.3,3.4c0,0.8-0.2,1.6-0.6,2.3c-0.4,0.7-1,1.3-1.7,1.8
		c0.9,0.2,1.6,0.8,2.2,1.6c0.6,0.8,0.9,1.8,0.9,3c0,1.8-0.5,3.2-1.6,4.4c-1.1,1.2-2.3,1.7-3.8,1.7c-1.4,0-2.6-0.5-3.6-1.5
		C-2162.2,1226.3-2162.8,1224.9-2163,1223.3z M-2167.5,1228.4h-3.1v-14c-1.2,1.3-2.5,2.2-4,2.8v-3.4c0.9-0.3,1.7-1,2.7-1.8
		c0.9-0.9,1.6-1.9,1.9-3.1h2.5V1228.4z M-2178.7,1228.4h-3.1v-14c-1.2,1.3-2.5,2.2-4,2.8v-3.4c0.9-0.3,1.7-1,2.7-1.8
		c0.9-0.9,1.6-1.9,1.9-3.1h2.5V1228.4z M-2199.2,1223.3l3-0.4c0.1,0.9,0.3,1.6,0.8,2.1c0.4,0.5,0.9,0.7,1.5,0.7
		c0.6,0,1.2-0.3,1.6-0.9c0.4-0.6,0.7-1.4,0.7-2.4c0-0.9-0.2-1.7-0.6-2.2c-0.4-0.5-0.9-0.8-1.5-0.8c-0.4,0-0.9,0.1-1.4,0.3l0.3-3
		c0.8,0,1.4-0.2,1.9-0.6c0.5-0.4,0.7-1.1,0.7-1.9c0-0.7-0.2-1.2-0.5-1.6c-0.3-0.4-0.8-0.6-1.3-0.6c-0.5,0-1,0.2-1.3,0.7
		c-0.4,0.4-0.6,1.1-0.7,1.9l-2.8-0.6c0.3-1.8,0.9-3.1,1.7-3.9c0.9-0.8,1.9-1.2,3.2-1.2c1.5,0,2.6,0.5,3.5,1.5c0.9,1,1.3,2.2,1.3,3.4
		c0,0.8-0.2,1.6-0.6,2.3c-0.4,0.7-1,1.3-1.7,1.8c0.9,0.2,1.6,0.8,2.2,1.6c0.6,0.8,0.8,1.8,0.8,3c0,1.8-0.5,3.2-1.6,4.4
		c-1.1,1.2-2.3,1.7-3.8,1.7c-1.4,0-2.6-0.5-3.6-1.5C-2198.5,1226.3-2199,1224.9-2199.2,1223.3z M-2204.5,1215.8
		c0-1.2-0.2-2.1-0.7-2.8c-0.5-0.7-1-1-1.6-1c-0.6,0-1,0.3-1.4,0.8c-0.4,0.5-0.6,1.4-0.6,2.7c0,1.2,0.2,2.2,0.6,2.7
		c0.4,0.6,0.9,0.9,1.5,0.9c0.6,0,1.1-0.3,1.5-0.8C-2204.7,1217.8-2204.5,1216.9-2204.5,1215.8z M-2211.5,1223.9l3-0.4
		c0.1,1.4,0.7,2.1,1.7,2.1c0.7,0,1.2-0.4,1.7-1.1c0.4-0.7,0.7-2.2,0.8-4.4c-0.4,0.5-0.8,0.9-1.3,1.2c-0.5,0.3-1,0.4-1.6,0.4
		c-1.2,0-2.3-0.6-3.2-1.7c-0.9-1.2-1.4-2.7-1.4-4.6c0-2,0.5-3.6,1.5-4.8c1-1.2,2.2-1.8,3.7-1.8c1.6,0,3,0.8,4,2.3
		c1.1,1.5,1.6,4,1.6,7.5c0,3.6-0.5,6.1-1.6,7.7c-1.1,1.6-2.5,2.3-4.3,2.3c-1.2,0-2.2-0.4-3-1.2
		C-2210.8,1226.8-2211.3,1225.6-2211.5,1223.9z M-2219.3,1223.2v-3.7h6.1v3.7H-2219.3z M-2232,1228.4v-19.2h3.2v15.9l8.1,0l0,3.3
		H-2232z M-2240,1228.7l4-20h2.3l-4,20H-2240z M-2257.1,1228.4l0-19.4h4.9l2.9,13.2l2.9-13.2l4.9,0v19.4h-3v-15.2l-3.2,15.2h-3.1
		l-3.2-15.2v15.2H-2257.1z M-2262.9,1221.3l3.1,1.2c-0.5,2.2-1.3,3.7-2.4,4.7c-1.1,1-2.5,1.5-4.2,1.5c-2.1,0-3.8-0.8-5.1-2.4
		c-1.5-1.8-2.3-4.3-2.3-7.4c0-3.3,0.8-5.9,2.3-7.7c1.3-1.6,3.1-2.4,5.3-2.4c1.8,0,3.3,0.6,4.5,1.8c0.9,0.9,1.5,2.1,1.9,3.8l-3.2,0.9
		c-0.2-1.1-0.6-1.9-1.2-2.4c-0.6-0.6-1.3-0.8-2.2-0.8c-1.2,0-2.2,0.5-2.9,1.5c-0.7,1-1.1,2.7-1.1,5.1c0,2.4,0.4,4.2,1.1,5.2
		c0.7,1,1.7,1.5,2.8,1.5c0.9,0,1.6-0.3,2.2-1C-2263.7,1223.7-2263.2,1222.7-2262.9,1221.3z"/>
	<path class="st9" d="M-2158.3,1142.6c3.4,0,6.8,0,10.2,0c0-5.1,0-10.1,0-15.2c-0.8-5.6-4.3-6.6-8-7.1c-19.6,0-39.3,0-58.9,0
		c-4.8-0.1-8.1,2.9-7.9,7.3c0,7.7,0,15.4,0,23.2c0,4.3,2,7.2,7.6,7.6c8.1,0,16.1,0,24.2,0c2.1,0.3,3.5,1.2,3.3,3.5c0,4.3,0,8.6,0,13
		c0,1.6-0.8,2.8-3.1,3c-16,0-31.9,0-47.9,0c-2.2-0.2-3.4-1.3-3.4-3.3c0-3.1,0-6.1,0-9.2c0,0-0.1,0-0.1,0c-3-0.1-6-0.2-9-0.3
		c-0.7,0-1.1,0.3-1,1c0,4.5,0,9.1,0,13.6c0.6,4.2,3.1,6.6,7.8,7.2c19.1,0,38.1,0,57.2,0c5.1,0.7,8.5-0.9,9.6-5.8
		c0-8.1,0-16.1,0-24.2c0.3-5.9-3.2-7.7-7.7-8.3c-8.3,0-16.5,0-24.8,0c-2.2-0.4-2.9-1.9-2.8-3.8c0-4.1,0-8.2,0-12.3
		c0.3-1.6,1-2.7,3.3-2.6c15.9,0,31.9,0,47.8,0c2.2,0.1,3.5,1.3,3.8,3.6C-2158.1,1133.6-2158.4,1142.6-2158.3,1142.6 M-2172.8,1134.4
		h10l0,53.1h-10V1134.4z M-2237.7,1120.4h10v53.1l-10,0V1120.4z M-2245.4,1115.6h90.1c6.7,0,12.1,5.1,12.1,11.4v53
		c0,6.3-5.5,11.4-12.1,11.4h-90.1c-6.7,0-12.1-5.1-12.1-11.4v-53C-2257.5,1120.7-2252.1,1115.6-2245.4,1115.6z M-2246.2,1105.9h92.8
		c11.3,0,20.5,8.8,20.5,19.5v56.6c0,10.6-9.2,19.3-20.5,19.3l-92.8,0c-11.3,0-21.9-8.7-21.9-19.3v-56.6
		C-2268.1,1114.8-2257.5,1105.9-2246.2,1105.9z"/>
</g>
<text transform="matrix(1 0 0 1 -1953.0187 1563.3335)" class="st7" style="font-family:'Roboto-Bold'; font-size:70px;">BIS (ISI – IS 694)</text>
<text transform="matrix(1 0 0 1 -863.4981 2516.9788)" class="st7" style="font-family:'Roboto-Bold'; font-size:76.2739px;">CE Certification</text>
</svg>
